<?xml version="1.0" encoding="utf-8"?>
<!-- Generator: Adobe Illustrator 18.0.0, SVG Export Plug-In . SVG Version: 6.00 Build 0)  -->
<!DOCTYPE svg PUBLIC "-//W3C//DTD SVG 1.1//EN" "http://www.w3.org/Graphics/SVG/1.1/DTD/svg11.dtd">
<svg version="1.1" id="Layer_1" xmlns="http://www.w3.org/2000/svg" xmlns:xlink="http://www.w3.org/1999/xlink" x="0px" y="0px"
	 viewBox="12.3 367.9 960.5 195.6" enable-background="new 12.3 367.9 960.5 195.6" xml:space="preserve">
<g>
	<g>
		<path fill="#F26722" stroke="#F26722" stroke-miterlimit="10" d="M184,420.6c8.6,9,10.8,28.2,3.4,39.8c-2.6,4-4.9,6.9-7.8,9.5
			c-3.5,2.9-9,3.4-12.3,1.4c-2.6-1.5-0.2-5.4,0.8-8.4c-2.5-0.5-5.5,0.2-8.4-0.3c-1,6.5-2.5,13.1-2.2,20.2c-0.2,1.1-0.1,2.9-0.3,4.2
			c0,1.6,0,3.2,0,4.8c0,0.5,0,2.5,0,2.8c0,18.9,3.3,41.1,9.3,56.9c1.6,4.2,4.6,11-2,11.5c-2.5,0.2-6-2.5-8.4-4.2
			c-17.1-11.7-37.7-19.9-57.8-28.3c-18.1-7.6-34.7-14.1-56.8-17.3c-3.7-0.5-8.5-0.8-12.4-1.1c-3.8-0.3-9.1,0.4-11.2-0.6
			c-2.7-1.2-3.1-7.2-3.7-11c-4.1-28,1.8-57.8,11.5-77.6c-0.7-1.3-2.7-2.5-2.8-5c-0.2-4.9,7.7-12.1,10.4-15.1
			c14.5-15.7,35.7-27,62.2-28.3c1.5-1.5,1.4-4.5,3.1-5.4c2.6-1.3,9.8,0,13.5,0.6c28.1,4.2,51.6,13.7,60.8,36.4
			c0.7,1.7,0.8,3.8,1.7,5.6c1.1,2.2,4.7,3.8,6.2,5.6C181.6,418.4,182.8,419.6,184,420.6z M186.8,444.7c0.9-12-4.7-19.6-10.7-24.7
			c-1.7-1.5-5-3.2-6.2-5.3c-0.7-1.3-0.4-2.9-0.8-4.2c-8.6-25.6-37.4-34.4-67.8-36.7c0.6,2.8,6.1,2.1,5.3,5.3c-0.9,0.2-1-0.3-1.7-0.3
			c-2.4-0.5-6.8-0.5-9.3,0c-32.9,1.5-53.8,17.4-67.8,38.7c2.8-0.2,4.8-3.6,8.4-3.9c-10,17-17.3,36.7-18.5,62.5
			c-0.6,0.8-0.1,2.7-0.3,3.9c0,0.7,0,1.5,0,2.2c0.2,1-0.4,2.8,0.3,3.4c0.4,8.1,1.1,14.5,3.1,20.7c32.5-0.4,60.8,8.7,84.9,19.6
			c10.3,4.7,20.8,9.2,30.3,14.6c9.6,5.5,18.7,11.1,27.5,16.8c-3.5-6.9-5.5-15.2-7.6-23.5c-0.1-1.3,0-2.8-0.8-3.4
			c-3.4-22-4.5-51.2,0.3-73.4c5.8,1.6,13.7,0.4,18.2-0.6c0.1,4.8-1,8.4-2.2,11.8C180.2,464.4,186,455.7,186.8,444.7z"/>
	</g>
	<g>
		<path fill="#F9A972" stroke="#F26722" stroke-miterlimit="10" d="M180.6,417.2c1.2,1,2.4,2.1,3.4,3.4
			C182.8,419.6,181.6,418.4,180.6,417.2z"/>
	</g>
	<g>
		<path fill="#5A5C67" stroke="#F26722" stroke-miterlimit="10" d="M155.1,530.4c0.9,0.5,0.8,2.1,0.8,3.4
			C155.4,533,155.7,531.3,155.1,530.4z"/>
	</g>
	<g>
		<path fill="#FFFFFF" stroke="#F26722" stroke-miterlimit="10" d="M142.2,424.5c-1.3,1.8-3.8,0-6.2-0.3c-3.3-0.4-6.9,0.3-9.3-0.6
			C130.9,421.8,138.9,422.9,142.2,424.5z"/>
	</g>
	<g>
		<path fill="#FFFFFF" stroke="#F26722" stroke-miterlimit="10" d="M126,413.8c4.6,3.3-2,7.3-7.9,5.3c-2.5-0.8-4.3-4.1-4.8-5
			c0-1.2,0-2.4,0-3.6c2.7-7,9.3-0.3,9,5.9C123.7,416.8,124.3,414.1,126,413.8z"/>
	</g>
	<g>
		<path fill="#5A5C67" stroke="#F26722" stroke-miterlimit="10" d="M110.5,474.1c0.4,1.3,0.5,2.9,0.8,4.2c-1.1-0.4-0.4-4.1-1.4-3.6
			c-0.1,0-0.2,0-0.3,0C109.8,474.3,110.1,474.1,110.5,474.1z"/>
	</g>
	<g>
		<path fill="#5A5C67" stroke="#F26722" stroke-miterlimit="10" d="M17.5,482.2c0.6,0.6,0.1,2.3,0.3,3.4
			C17.1,485,17.7,483.3,17.5,482.2z"/>
	</g>
	<g>
		<path fill="#5A5C67" stroke="#F26722" stroke-miterlimit="10" d="M17.8,476.1c-0.2,1.2,0.4,3.2-0.3,3.9
			C17.7,478.8,17.1,476.8,17.8,476.1z"/>
	</g>
	<g id="XMLID_2_">
		<g>
			<path fill="#212F4C" d="M113.6,383.5c-3.5-0.1-8-0.2-10.5-0.2c-1.4,0.1-1.7,0-2.8,0.3c-25.7,1.1-44.9,11.9-58.9,24.5
				c-0.8,0.7-2.6,1.9-2,2.6c2.6-0.7,5.7-0.9,9-0.9c-10.4,16.7-21.8,32.3-23.4,57.8c0,3,0,6.1,0,9.1c0,3.3,0.2,6.5,1.1,8.8
				c3-6,7.9-11.8,12.1-15.7c1.6,11.1,5.2,21.7,12.4,26.2c-0.9-2-1.2-4.5-1.4-7.1c-0.1-0.7,0-3.1,0-4c0.8-10.4,4.9-19,10.4-23.6
				c-0.5,1.5-0.6,3.4-0.6,5.4c0,0.2,0,0.4,0,0.5c-0.2,2.2-0.2,4.8,0,6.8c0,0.3,0,0.6,0,0.9c0.3,8,2.6,15.2,5.6,20.2
				c0.9,1.5,2.9,3.8,3.9,3.5c-0.2-0.7-0.6-2.1-0.7-3.1c0,0,0,0,0,0c0.1-0.7,0.1-1.6,0.2-2.3c0.8-9.5,3.9-18.3,8.2-23.4
				c2.9,25,17.5,38.2,36.4,47c-2.4-5.1-3.7-13.7-4.2-21.6c-0.5-2.2,0-6.2,0-8.5c0.4-3.6,0.5-7.5,2-10c3.2,32,16.1,55.7,41.2,64.7
				c-5.5-11.1-8.8-24.5-9.6-40.5c-0.2-1.9,0-6,0-8c0-7.9,2-14,2.3-21.6c0-2.1,0-4.2,0-6.3c-1-14-7-23-17.2-27.6
				c-2.4-4.2-10.3-2.9-11.8-8c2.5-1.8,6.3-2.3,10.4-2.6c1.1-0.2,2-0.3,3.7-0.3c5-0.3,8.8,0.6,13.3,0.9c0.8,0.5,3.5,0.5,4.2,0
				c7.6-4.5-9.1-8.8-13.5-8c-2.6,0.5-4.3,3.7-6.2,3.7c-4.1,1.3-10.3,2.1-13.8-0.3c2.9,0.4,7.4,0.7,9.3-0.9c-7.2,1-12.9-1.6-15.8-6
				c0.1-0.2,0.2-0.3,0.3-0.2c1.6,1.2,4.1,3.1,6.8,3.3c-0.9-1.8-2.3-2-3.4-3.7c-1.3-1.9-1.4-4.6-2.8-6.6c-3.8-5.4-13.3-6-19.2-2
				c3.6-3.5,8.9-5.5,15.5-6c1.2,0,2.4,0,3.7,0c8.7,1.2,16.9,3.4,22,9.7c0.8,1,1,2.3,2,3.1c3.2,2.9,8.9,3.6,13.3,6
				c1.5,0.8,3.1,2.9,5.1,2.6c1.4-0.2,2.8-2.8,4.2-4c3.1-2.6,8.1-3.7,12.7-3.4c-2.4-5.8-5.3-11.2-9.3-15.4c-1-1.3-2.1-2.4-3.4-3.4
				c-11-9.8-26.5-16.7-44.5-18.5c2.8,1.7,5.6,3.3,7.3,6c-0.2,0-0.4,0-0.6,0c0,0,0,0-0.1,0c-0.3,0-0.6,0-0.9,0
				C114.8,383.6,114.2,383.5,113.6,383.5z M187.1,441.7c0,1,0,1.9,0,2.8c-0.7,12.6-6.7,19.5-15.7,23.7c1.2-3.2,2.1-6.9,2.2-10.6
				c-4.6,0.2-12.8,2-17.8,0c-6.6,33-3.4,74.3,7.7,99.7c-18.6-11.7-39.2-20.7-61-30.5c-23.6-10.6-49-19.8-82.5-19.6
				c-8.6-34.5,2.5-71.1,15.4-93.5c-3.3,1.3-4.4,3.3-7.6,3.7c5.4-10.9,15.5-21,26.5-27.3c12.7-7.4,33.4-15.3,52.1-12.5
				c-1.1-1.2-5.4-2.2-5.2-3.8c16.9,0.4,27.6,3,38.9,8c12,5.3,25.8,15.3,28.8,28c0.4,1.7,0.3,3.4,1.1,4.8c1.1,2,3.9,3.2,5.6,4.8
				C181.3,424.6,186.7,431.4,187.1,441.7z M178.1,461.3c2.1-4.3,4.8-8.1,4.8-14.5c0-1,0-2.1,0-3.1c-1-11.5-6.3-21-13.8-24.5
				c-6.8-3.1-14.7,1-18,4.8c-1.1,1.3-1.6,3.3-3.1,4.6c-4,3.3-11.5,1.8-17.2,1.4c-1,0-2.1,0-3.1,0c-1.9-0.1-3.1,0.5-4.5,0.9
				c2.1,5.4,8.7,4.6,13.5,4.8c5.7,0.3,11.8,0.9,16.6,2C166.2,440.7,177.7,447.6,178.1,461.3z M152.7,450.2c5,1.8,10.6,4.5,17.8,3.1
				c-5.4-6.4-14.3-11-24.5-12.5c-1.5-0.2-3.8-0.7-5.6,0C145.1,443.3,149.8,445.9,152.7,450.2z M127.4,419.8c2.3-1.5,2.1-5.8-0.6-6.1
				c-2.3-0.2-2.1,2.6-4.5,2.8c0.8-6.6-6-12.8-10.1-6.8c-0.5,0.9-0.5,3.7,0,4.6c1.4,4.1,6.2,6.1,10.7,6.3c0.6-0.1,2.3-0.1,3.4-0.3
				c0,0,0.1,0,0.1,0C126.8,420.2,127.2,420,127.4,419.8z"/>
			<path fill="#F16822" d="M182.9,446.8c0,6.5-2.6,10.2-4.8,14.5c-0.4-13.7-11.9-20.7-24.8-23.6c-4.9-1.1-11-1.7-16.6-2
				c-4.9-0.2-11.4,0.5-13.5-4.8c1.4-0.4,2.7-0.9,4.5-0.9c1,0,2.1,0,3.1,0c5.7,0.4,13.2,1.9,17.2-1.4c1.5-1.3,2-3.3,3.1-4.6
				c3.4-3.9,11.3-8,18-4.8c7.5,3.5,12.8,13,13.8,24.5C182.9,444.7,182.9,445.8,182.9,446.8z M165.7,426c1.8-3.1-3.1-5.5-4.5-2.8
				C163.4,423.4,164.6,424.6,165.7,426z"/>
			<path fill="#F16822" d="M170.5,453.4c-7.2,1.3-12.7-1.4-17.8-3.1c-2.9-4.4-7.6-6.9-12.4-9.4c1.8-0.7,4.2-0.2,5.6,0
				C156.2,442.3,165.1,446.9,170.5,453.4z"/>
			<path fill="#ABACAE" d="M126.9,423.4c-0.3,0.6,0,0.9,0.6,1.1c1.5,0.6,5.9,0.2,7.7,0.4c2.7-0.1,5.4,2.3,7.3,0.3
				c-1.7-2.6-6.5-2.2-10.7-2.3c-0.9,0.1-1.9-0.1-2.8,0C128.6,422.9,127.4,423.4,126.9,423.4z M106.8,416.1c2.9,4.3,8.5,7,15.8,6
				c-1.9,1.5-6.4,1.3-9.3,0.9c3.5,2.4,9.7,1.6,13.8,0.3c1.9,0,3.6-3.2,6.2-3.7c4.4-0.9,21.1,3.5,13.5,8c-1.4,0-2.8,0-4.2,0
				c-4.5-0.2-8.2-1.2-13.3-0.9c-1.7,0-2.5,0.1-3.7,0.3c-4.1,0.2-7.9,0.7-10.4,2.6c1.6,5.1,9.4,3.8,11.8,8
				c10.2,4.7,16.2,13.6,17.2,27.6c0,2.1,0,4.2,0,6.3C144,479,142.1,485,142,493c0,2-0.2,6.1,0,8c0.8,15.9,4.1,29.3,9.6,40.5
				c-25-9-38-32.6-41.2-64.7c-1.5,2.5-1.6,6.4-2,10c0,2.4-0.5,6.4,0,8.5c0.5,7.9,1.8,16.6,4.2,21.6c-18.9-8.8-33.5-22-36.4-47
				c-4.3,5.1-7.3,13.9-8.2,23.4c-0.1,0.6-0.1,1.6-0.2,2.3c0,0,0,0,0,0c0.1,1.1,0.5,2.4,0.7,3.1c-1,0.4-3-2-3.9-3.5
				c-3.1-5-5.3-12.2-5.6-20.2c0-0.3,0-0.6,0-0.9c0-2.3,0-4.6,0-6.8c0-0.2,0-0.4,0-0.5c-0.1-2.1,0.1-3.9,0.6-5.4
				c-5.5,4.7-9.6,13.3-10.4,23.6c0,0.9-0.1,3.3,0,4c0.2,2.6,0.5,5.2,1.4,7.1c-7.2-4.5-10.8-15.1-12.4-26.2
				c-4.2,3.9-9.1,9.6-12.1,15.7c-1-2.4-1.1-5.5-1.1-8.8c0-3,0-6.1,0-9.1c1.6-25.5,13-41.1,23.4-57.8c-3.3,0-6.4,0.2-9,0.9
				c-0.7-0.6,1.1-1.8,2-2.6c14-12.6,33.2-23.4,58.9-24.5c1.1-0.3,1.4-0.1,2.8-0.3c2.5,0,6.9,0.2,10.5,0.2c0.4,0.2,1.1,0.1,1.8,0
				c0.3,0,0.6,0,0.9,0c0,0,0,0,0.1,0c0.2,0,0.4,0,0.6,0c-1.8-2.7-4.6-4.3-7.3-6c18,1.9,33.5,8.7,44.5,18.5c1,1.3,2.1,2.4,3.4,3.4
				c4,4.2,6.9,9.5,9.3,15.4c-4.6-0.3-9.5,0.9-12.7,3.4c-1.4,1.2-2.8,3.8-4.2,4c-2,0.3-3.6-1.7-5.1-2.6c-4.3-2.4-10-3.1-13.3-6
				c-0.9-0.8-1.2-2.1-2-3.1c-5.1-6.3-13.3-8.5-22-9.7c-1.2,0-2.4,0-3.7,0c-6.6,0.5-11.9,2.4-15.5,6c5.8-4,15.4-3.4,19.2,2
				c1.4,2,1.5,4.7,2.8,6.6c1.1,1.7,2.5,1.9,3.4,3.7c-2.6-0.2-5.1-2.1-6.8-3.3C107,415.8,106.9,415.8,106.8,416.1z M154.4,412.6
				c1.7-0.8,3.1-0.6,3.9-2c-0.4-4.2-4.2-7-7.3-9.4c-9.7-7.6-23.6-12.8-39.2-13.7c-1.3-0.2-2-0.1-2.8-0.3c-2.2,0-4.3,0-6.5,0
				c-0.9,0.2-2.3,0.2-2.8,0.3C82,388.4,68,395.4,58,403.8c-1.3,1.1-3.7,2.2-3.4,3.4c1.7,0.2,2.4-0.6,3.9-0.6
				C46.7,422,36.6,439.2,35.2,465c2.7-0.7,4-4.3,6.5-4.3c-0.6,0.7-0.1,3.4-0.3,4.6c0,0.3,0,0.6,0,0.9c0.1,0.5,0,1,0,1.6v0
				c0,0.5-0.1,1.1,0,1.5c0.1,8.4,3.4,19.3,7.1,23.9c-5.8-17.8,3.1-36.3,16.1-40.5c-2.7,9.8-3.2,24.5-0.8,35c0.8,3.5,1.4,7.5,3.9,8.8
				c-0.5-1.6-0.8-3.6-0.8-5.7c0-1,0-2.1,0-3.1c1.6-14.1,6.8-24.7,16.3-30.8c-2.7,30.3,12.7,47,28.5,58.4c-3.8-6.3-5.7-14.5-6.5-23.9
				c-0.2-0.9-0.3-2.4-0.3-2.8c0-1.4,0-2.8,0-4.3c0-0.7,0.1-2.2,0.3-3.1c0.5-13,5.5-21.6,9.9-30.8c0,0.9,0,1.7,0,2.6
				c0,1.6,0,3.2,0,4.8c0.4,32.9,11.3,55,27.3,72.1c0.9,0.8,2,2.9,3.1,2.6c-0.4,0-0.3-0.5-0.6-0.6c-4-8.5-7.3-17.7-7.9-29.6
				c0-2.1,0-4.2,0-6.3c0-6.4,2.2-12.7,2.5-19.1c0.8-13.9-3.9-25.8-9.9-33.6c-6.5-3-22.9-8.6-16.3-18.8c-4.9-2.9-8.5-7.2-10.4-13.1
				c-4.2-2.7-11.5-2.2-18-2.6c3.5-5.7,8.9-9.9,17.2-10.5c6.5-0.5,16.7,0.4,22,3.7c1.4,0.9,2.1,2.7,3.9,4c2.6,1.8,6.8,3.3,10.4,5.1
				c3.1,1.5,8.1,5.4,10.7,5.1C150.7,416.2,152.4,413.6,154.4,412.6z"/>
			<path fill="#212F4C" d="M161.2,423.2c1.4-2.6,6.3-0.3,4.5,2.8C164.6,424.6,163.4,423.4,161.2,423.2z"/>
			<path fill="#FFFFFF" d="M41.4,469.3c0-0.5,0-1,0-1.5v0c0-0.6,0.1-1.2,0-1.6c0-0.3,0-0.6,0-0.9c0.2-1.2-0.4-3.9,0.3-4.6
				c-2.4,0-3.8,3.6-6.5,4.3c1.5-25.9,11.5-43.1,23.4-58.4c-1.6-0.1-2.2,0.8-3.9,0.6c-0.3-1.2,2-2.3,3.4-3.4
				c9.9-8.4,24-15.4,41.7-16.2c0.6-0.1,2-0.1,2.8-0.3c2.2,0,4.3,0,6.5,0c0.9,0.2,1.5,0.1,2.8,0.3c15.6,0.9,29.5,6.1,39.2,13.7
				c3.1,2.4,6.9,5.2,7.3,9.4c-0.8,1.4-2.3,1.2-3.9,2c-2,1-3.7,3.5-5.4,3.7c-2.6,0.3-7.6-3.6-10.7-5.1c-3.7-1.8-7.8-3.3-10.4-5.1
				c-1.8-1.3-2.5-3.1-3.9-4c-5.3-3.3-15.5-4.2-22-3.7c-8.3,0.6-13.7,4.8-17.2,10.5c6.5,0.3,13.8-0.1,18,2.6
				c1.9,5.9,5.5,10.2,10.4,13.1c-6.5,10.2,9.9,15.8,16.3,18.8c6,7.9,10.6,19.7,9.9,33.6c-0.4,6.4-2.5,12.7-2.5,19.1
				c0,2.1,0,4.2,0,6.3c0.6,11.9,3.9,21.1,7.9,29.6c-0.7,0.3-1.6-1.6-2.5-2c-16-17.1-27-39.2-27.3-72.1c0-1.6,0-3.2,0-4.8
				c0-0.9,0-1.7,0-2.6c-4.4,9.1-9.3,17.7-9.9,30.8c-0.2,1-0.3,2.4-0.3,3.1c0,1.4,0,2.8,0,4.3c0,0.5,0.1,2,0.3,2.8
				c0.8,9.4,2.7,17.6,6.5,23.9c-15.8-11.4-31.2-28.1-28.5-58.4c-9.6,6.1-14.7,16.7-16.3,30.8c0,1,0,2.1,0,3.1
				c0.1,2.1,0.3,4.1,0.8,5.7c-2.5-1.3-3.2-5.4-3.9-8.8c-2.4-10.5-1.9-25.2,0.8-35c-12.9,4.1-21.9,22.7-16.1,40.5
				C44.8,488.6,41.5,477.7,41.4,469.3z"/>
			<path fill="#7A7A81" d="M154.1,396.1c1.2,1,2.4,2.2,3.4,3.4C156.3,398.5,155.1,397.4,154.1,396.1z"/>
			<path fill="#7A7A81" d="M142.6,427.4c1.4,0,2.8,0,4.2,0C146,427.9,143.3,427.9,142.6,427.4z"/>
			<path fill="#DFD4CE" d="M145.4,532.6c-1.1,0.4-2.2-1.7-3.1-2.6c1,0.4,1.8,2.3,2.5,2C145.1,532.1,145,532.6,145.4,532.6z"/>
			<path fill="#FFFFFF" d="M127.5,424.5c-0.6-0.2-0.9-0.5-0.6-1.1c0.5,0,1.6-0.5,2.1-0.5c0.9-0.1,1.9,0.1,2.8,0
				c4.2,0.1,9-0.4,10.7,2.3c-2,2-4.7-0.4-7.3-0.3C133.4,424.7,129.1,425.1,127.5,424.5z"/>
			<path fill="#FFFFFF" d="M126.2,420.3c-1.1,0.2-2.7,0.2-3.4,0.3c-4.5-0.1-9.3-2.1-10.7-6.3c-0.5-0.9-0.5-3.7,0-4.6
				c4.1-6,11,0.2,10.1,6.8c2.4-0.3,2.2-3.1,4.5-2.8c2.7,0.3,2.9,4.6,0.6,6.1c-0.3,0.2-0.6,0.3-1,0.4
				C126.3,420.3,126.3,420.3,126.2,420.3z"/>
			<path fill="#212F4C" d="M126.4,420.3c0.4-0.1,0.7-0.2,1-0.4C127.2,420,126.8,420.2,126.4,420.3z"/>
			<path fill="#ABACAE" d="M115.4,383.6c0.3,0,0.6,0,0.9,0C116,383.6,115.7,383.6,115.4,383.6z"/>
			<path fill="#ABACAE" d="M115.4,383.6c-0.6,0-1.3,0.1-1.8,0C114.2,383.5,114.8,383.6,115.4,383.6z"/>
			<path fill="#7A7A81" d="M59.1,467.3c0,2.3,0,4.6,0,6.8C58.9,472.1,58.9,469.5,59.1,467.3z"/>
			<path fill="#ABACAE" d="M41.4,467.8c0,0.5,0,1,0,1.5C41.3,468.9,41.3,468.3,41.4,467.8z"/>
		</g>
		<g>
			<path fill="none" stroke="#ABACAE" stroke-width="0.25" stroke-miterlimit="10" d="M59.5,476.3c-0.1-0.6-0.3-1.4-0.4-2.2
				c-0.2-2.1-0.2-4.6,0-6.8c0.1-1.4,0.3-2.7,0.6-3.7"/>
			<path fill="none" stroke="#ABACAE" stroke-width="0.25" stroke-miterlimit="10" d="M49.1,481.7c0,3,0,6.1,0,9.1"/>
		</g>
	</g>
</g>
<g>
	<g>
		<path fill="#212F4C" d="M295.1,473c0,1.7-0.1,2.7-0.2,3.1c-0.1,0.4-0.6,0.8-1.4,1.3c-2.2,1.1-4.5,2-7.1,2.6
			c-2.6,0.7-5.3,1.3-8.1,1.7s-5.6,0.8-8.4,1c-2.8,0.2-5.4,0.3-8,0.3c-7.9,0-15.5-0.9-22.7-2.8c-7.2-1.9-13.5-4.8-19.1-8.7
			c-5.5-4-9.9-9-13.1-15.2c-3.2-6.2-4.8-13.5-4.8-22.2c0-5,0.6-9.6,1.8-13.8s2.9-8,5-11.4c2.1-3.4,4.5-6.4,7.3-9
			c2.7-2.6,5.6-4.8,8.5-6.5c6.2-3.6,12.1-5.9,17.9-6.8c5.8-0.9,11.4-1.3,16.9-1.3c2.2,0,4.6,0.1,7,0.2s4.7,0.3,6.8,0.6
			c2.2,0.2,4,0.5,5.6,0.7c1.6,0.2,2.8,0.4,3.4,0.5c1.4,0.2,3,0.4,5,0.7c2,0.3,3.7,0.5,5.3,0.6c0.8,0.1,1.3,0.2,1.5,0.4
			c0.2,0.2,0.3,0.5,0.3,1c0,0.4,0,0.9-0.1,1.6c-0.1,0.7-0.2,1.8-0.3,3.3c-0.1,1.5-0.2,3.5-0.3,6c-0.1,2.5-0.1,5.7-0.1,9.6
			c0,1.9-0.6,2.8-1.8,2.8c-0.7,0-1.1-0.5-1.3-1.6c-0.2-1.4-0.6-3-1.1-4.8s-1.6-3.7-3.3-5.4c-1-1-2.3-2-4-3.2c-1.7-1.1-3.7-2.2-6-3.1
			c-2.3-0.9-5-1.7-8.1-2.3c-3-0.6-6.3-1-10-1c-1.8,0-3.6,0-5.6,0.1c-2,0.1-4,0.4-6.2,0.8c-2.1,0.4-4.3,1.2-6.5,2.2s-4.4,2.4-6.7,4.2
			c-3.6,2.9-6.5,6.8-8.6,11.7c-2.1,4.8-3.2,11.1-3.2,18.7c0,6.7,1,13,3.1,18.6c2.1,5.7,5.1,10.6,8.9,14.7c3.9,4.1,8.5,7.3,14,9.6
			c5.5,2.3,11.7,3.4,18.6,3.4c1.7,0,3.2,0,4.6-0.1c1.4-0.1,2.9-0.5,4.5-1.2c1.7-0.8,2.5-2.3,2.5-4.4v-11.4c0-3.1,0-5.9,0-8.2
			c0-2.3,0-4.5-0.1-6.5c-0.1-2.2-0.5-3.7-1.3-4.5c-0.8-0.9-2.2-1.6-4.2-2.2c-0.5-0.2-1.2-0.3-2.2-0.4c-1,0-1.9-0.1-2.8-0.1
			c-1.4,0-2.1-0.4-2.1-1.3c0-0.8,0.9-1.2,2.8-1.2c1.7,0,3.4,0,5.4,0.1c1.9,0,3.8,0.1,5.6,0.1c1.9,0,3.5,0,5.1,0.1s2.8,0.1,3.7,0.1
			c2.1,0,4.5,0,7.5-0.1c2.9-0.1,5.5-0.1,7.6-0.1c1.8,0,2.6,0.4,2.6,1.2c0,0.9-0.5,1.3-1.6,1.3c-0.9,0-2.1,0.2-3.5,0.5
			c-1.8,0.3-3,0.9-3.7,1.9c-0.7,1-1.2,2.6-1.2,4.8c-0.1,2-0.1,4.2-0.1,6.6s0,5.2,0,8.4L295.1,473L295.1,473z"/>
		<path fill="#212F4C" d="M348.6,445c0,8,0.1,14.1,0.4,18.3c0.2,4.2,1.1,6.8,2.4,8c1.1,1,3,1.7,5.6,2.1c2.7,0.4,6.5,0.6,11.5,0.6
			c3.4,0,6.4-0.2,8.9-0.5s4.6-1.3,6.2-3c0.8-0.8,1.5-1.9,2.1-3.4c0.6-1.5,1-2.9,1.2-4c0.2-1.3,0.7-1.9,1.5-1.9c0.5,0,0.8,0.3,1,0.8
			c0.1,0.5,0.2,1.2,0.2,2c0,0.4,0,1.2-0.1,2.3c-0.1,1.2-0.2,2.5-0.4,4c-0.2,1.5-0.4,3-0.6,4.5c-0.2,1.5-0.4,2.7-0.7,3.6
			c-0.2,0.7-0.4,1.2-0.7,1.7c-0.2,0.4-0.7,0.8-1.2,1c-0.6,0.2-1.4,0.4-2.3,0.5s-2.3,0.1-4,0.1c-9,0-16.7-0.1-23.2-0.3
			c-3.2-0.1-6.2-0.2-9-0.3c-2.8-0.1-5.5-0.1-8.2-0.1c-0.8,0-1.8,0-3.1,0.1c-1.3,0-2.7,0.1-4.3,0.1c-1.6,0.1-3.1,0.2-4.6,0.3
			c-1.5,0.1-3,0.1-4.3,0.1c-1.7,0-2.5-0.5-2.5-1.4c0-0.3,0.1-0.6,0.4-0.9c0.3-0.3,0.8-0.4,1.6-0.4c1.9,0,3.4-0.1,4.5-0.4
			c1.4-0.3,2.3-1,2.8-2.1c0.5-1.1,0.8-2.6,1-4.5c0.3-2.6,0.5-6.3,0.5-10.9s0.1-9.8,0.1-15.6v-22c0-4.7,0-8.5,0-11.4c0-3,0-5.5,0-7.3
			s0-3.3-0.1-4.5c0-1.1-0.1-2.2-0.1-3.2c-0.2-2.2-0.7-3.7-1.4-4.5c-0.7-0.9-2.1-1.6-4.2-2.2c-1.1-0.3-2.5-0.4-4.2-0.4
			c-1.5,0-2.2-0.4-2.2-1.3c0-0.8,0.9-1.2,2.8-1.2c1.5,0,3.1,0,4.8,0.1c1.7,0,3.3,0.1,4.9,0.1c1.7,0,3.2,0,4.6,0.1
			c1.4,0,2.6,0.1,3.5,0.1c0.8,0,2,0,3.5-0.1c1.6,0,3.2-0.1,5-0.1c1.9,0,3.7,0,5.5-0.1c1.8,0,3.3-0.1,4.6-0.1c1.9,0,2.8,0.4,2.8,1.2
			c0,0.9-0.8,1.3-2.3,1.3c-0.8,0-1.6,0-2.5,0.1c-0.9,0-1.7,0.2-2.5,0.4c-1.8,0.3-3,0.9-3.6,1.9c-0.6,1-1.1,2.6-1.2,4.8
			c-0.1,1-0.2,2-0.3,3.2c-0.1,1.1-0.1,2.6-0.1,4.5c0,1.9,0,4.3,0,7.3c0,2.9,0,6.7,0,11.4L348.6,445L348.6,445z"/>
		<path fill="#212F4C" d="M412.2,423c0-4.7,0-8.5,0-11.4c0-3,0-5.5,0-7.3c0-1.9,0-3.3-0.1-4.5c0-1.1-0.1-2.2-0.1-3.2
			c-0.2-2.2-0.7-3.7-1.4-4.5c-0.7-0.9-2.1-1.6-4.2-2.2c-0.5-0.2-1.2-0.3-2.2-0.4c-1,0-2-0.1-2.9-0.1c-1.5,0-2.2-0.4-2.2-1.3
			c0-0.8,1-1.2,2.9-1.2c3.4,0,6.9,0,10.5,0.1c3.6,0.1,6.3,0.1,8.1,0.1c0.7,0,2,0,3.8,0c2,0,4.2,0,6.6,0c2.4,0,5,0,7.8,0s5.3,0,7.6,0
			c2.4,0,4.5,0,6.2,0c1.8,0,2.8,0,3.2,0c1.2-0.1,2.2-0.2,3.2-0.3c1-0.1,1.7-0.3,2.2-0.3c0.4-0.1,0.8-0.2,1.1-0.4
			c0.3-0.1,0.7-0.2,1-0.2c0.6,0,0.9,0.4,0.9,1.2c0,0.5-0.1,1.2-0.4,2.3c-0.2,1-0.5,3-0.7,5.8c0,0.3,0,0.8-0.1,1.6
			c0,0.8-0.1,1.6-0.2,2.4c-0.1,0.8-0.2,1.6-0.2,2.4c0,0.8-0.1,1.4-0.2,1.8c-0.1,0.3-0.2,0.7-0.4,1.2c-0.2,0.5-0.5,0.8-1,0.8
			c-0.7,0-1-0.5-1-1.6c0-0.5,0-1.2-0.1-2.1c-0.1-0.9-0.3-1.7-0.7-2.5c-0.5-1.1-1.2-2-2.2-2.9c-1-0.8-3.1-1.4-6.3-1.7
			c-0.6-0.1-1.8-0.2-3.7-0.2c-1.9,0-4-0.1-6.2-0.1c-2.3,0-4.3-0.1-6.3-0.1c-2,0-3.3-0.1-4-0.1c-0.6,0-0.9,0.4-0.9,1.2v30.8
			c0,0.9,0.3,1.3,0.9,1.3c0.7,0,2.1,0,4.2,0c2.2,0,4.6,0,7,0s4.7,0,6.9-0.1c2.2,0,3.6-0.1,4.4-0.2c1.6-0.2,2.8-0.4,3.8-0.6
			c1-0.2,1.8-0.6,2.3-1.3c0.5-0.5,0.9-0.9,1.2-1.2c0.3-0.3,0.6-0.4,0.9-0.4c0.7,0,1,0.4,1,1.3c0,0.4-0.1,1.2-0.2,2.5
			c-0.1,1.3-0.4,3.5-0.8,6.6c-0.2,1.3-0.3,2.9-0.4,4.8c-0.1,1.9-0.1,3.1-0.1,3.6s-0.1,1.1-0.2,1.8c-0.1,0.7-0.5,1-1.1,1
			c-0.8,0-1.2-0.3-1.2-1c-0.1-0.7-0.1-1.4-0.1-2.2c0-0.8-0.1-1.6-0.3-2.3c-0.4-1.3-1.1-2.3-2.1-3.2c-1-0.9-2.7-1.4-5.1-1.6
			c-0.6-0.1-1.8-0.2-3.7-0.2c-1.9,0-3.9-0.1-6.1-0.1c-2.2,0-4.3-0.1-6.3-0.1c-2,0-3.4-0.1-4.2-0.1c-0.5,0-0.7,0.4-0.7,1.3v10
			c0,1.1,0,2.5,0,4.2c0,1.7,0,3.4,0,5.3c0,1.8,0,3.5,0,5.1c0,1.7,0,2.9,0,3.8c0.1,2.1,0.4,3.9,1,5.2s1.5,2.4,2.9,3.1
			s3.1,1.3,5.3,1.6c2.2,0.3,5,0.4,8.3,0.4c1.7,0,3.7-0.1,6.1-0.2c2.4-0.1,4.4-0.6,6.1-1.4c1.7-0.8,2.9-1.9,3.7-3.3
			c0.8-1.4,1.4-3.4,1.9-5.9c0.3-1.3,0.8-1.9,1.5-1.9c0.5,0,0.8,0.3,1,1c0.1,0.6,0.2,1.3,0.2,2c0,0.7,0,1.7-0.1,3
			c-0.1,1.3-0.2,2.7-0.4,4c-0.2,1.4-0.4,2.7-0.6,4c-0.2,1.3-0.4,2.2-0.6,2.8c-0.2,0.8-0.4,1.4-0.7,1.8c-0.3,0.4-0.7,0.8-1.2,0.9
			c-0.5,0.2-1.2,0.3-2,0.4c-0.8,0-1.8,0.1-2.9,0.1c-9.6,0-17.5-0.1-23.8-0.3c-3.1-0.1-5.9-0.2-8.4-0.3s-4.7-0.1-6.6-0.1
			c-0.8,0-1.8,0-3.1,0.1c-1.3,0-2.7,0.1-4.3,0.1c-1.6,0.1-3.1,0.2-4.6,0.3c-1.5,0.1-3,0.1-4.3,0.1c-1.7,0-2.5-0.5-2.5-1.4
			c0-0.3,0.1-0.6,0.4-0.9s0.8-0.4,1.6-0.4c1.9,0,3.4-0.1,4.5-0.4c1.4-0.3,2.3-1,2.8-2.1c0.5-1.1,0.8-2.6,1-4.5
			c0.3-2.6,0.5-6.3,0.5-10.9c0-4.6,0.1-9.8,0.1-15.6L412.2,423L412.2,423z"/>
		<path fill="#212F4C" d="M504.9,464.2c0.2,4.9,0.7,8.2,1.4,10c0.7,1.8,1.7,3,3,3.4c1.1,0.4,2.2,0.6,3.4,0.7
			c1.2,0.1,2.3,0.1,3.4,0.1c1.5,0,2.2,0.4,2.2,1.4s-1,1.4-2.9,1.4c-4.2,0-7.8-0.1-10.7-0.2c-2.9-0.2-4.9-0.2-6.1-0.2
			c-0.6,0-2.2,0.1-4.9,0.2c-2.7,0.2-5.7,0.2-9,0.2c-0.9,0-1.6-0.1-2.1-0.2s-0.8-0.5-0.8-1.1c0-0.9,0.7-1.4,2.1-1.4
			c0.9,0,1.9,0,2.9-0.1c1.1-0.1,2.1-0.2,2.9-0.4c0.9-0.2,1.6-0.6,2.1-1.2c0.5-0.6,0.9-1.5,1.2-2.6c0.3-1.2,0.5-2.7,0.6-4.5
			s0.1-4.1,0.1-6.8l1.2-73.9c0-1.3,0.2-2.3,0.6-3.1c0.4-0.8,0.9-1.2,1.6-1.2c0.8,0,1.6,0.4,2.6,1.2s1.9,1.8,3,2.9
			c0.4,0.4,1.8,1.8,4.2,4.3c2.4,2.5,5.5,5.6,9.2,9.3c3.7,3.7,7.8,7.8,12.4,12.4c4.6,4.5,9.2,9.1,13.9,13.7c2.1,2.2,4.7,4.7,7.8,7.8
			c3,3,5.9,6,8.7,8.8c2.8,2.8,5.3,5.4,7.4,7.6c2.1,2.2,3.5,3.5,4,3.9h0.6l-1.3-55.4c-0.1-3.8-0.5-6.5-1.1-7.9
			c-0.6-1.5-1.7-2.5-3.3-3.1c-1-0.4-2.1-0.6-3.4-0.7c-1.3,0-2.4-0.1-3.3-0.1c-1.4,0-2.1-0.4-2.1-1.3c0-0.8,1.1-1.2,3.2-1.2
			c3.4,0,6.7,0,9.7,0.1c3.1,0.1,5.3,0.1,6.7,0.1c0.8,0,2.3,0,4.5-0.1c2.2-0.1,4.9-0.1,8.1-0.1c2,0,2.9,0.4,2.9,1.2
			c0,0.9-0.7,1.3-2.2,1.3c-0.7,0-1.3,0-1.9,0.1c-0.6,0-1.3,0.2-2.1,0.4c-1.8,0.5-3,1.4-3.6,2.9c-0.6,1.4-1,3.9-1.1,7.4l-1.5,78.6
			c0,1.4-0.2,2.4-0.7,3c-0.4,0.6-0.9,1-1.4,1c-1.1,0-2-0.3-2.9-0.8c-0.9-0.5-1.7-1.2-2.3-1.8c-2-1.9-4.5-4.2-7.4-6.9
			c-2.9-2.7-6-5.7-9.4-8.9c-3.4-3.2-6.9-6.6-10.5-10c-3.6-3.5-7.1-6.8-10.4-10c-3.5-3.3-7-6.7-10.3-10.2c-3.4-3.5-6.4-6.6-9.1-9.5
			c-2.7-2.8-5.1-5.3-6.9-7.3c-1.9-2-3.1-3.3-3.7-3.9h-0.4L504.9,464.2z"/>
		<path fill="#212F4C" d="M620,423c0-4.7,0-8.5,0-11.4c0-3,0-5.5,0-7.3c0-1.9,0-3.3-0.1-4.5c0-1.1-0.1-2.2-0.1-3.2
			c-0.2-2.2-0.7-3.7-1.4-4.5c-0.7-0.9-2.1-1.6-4.2-2.2c-0.5-0.2-1.2-0.3-2.2-0.4c-1,0-2-0.1-2.9-0.1c-1.5,0-2.2-0.4-2.2-1.3
			c0-0.8,1-1.2,2.9-1.2c3.4,0,6.9,0,10.5,0.1c3.6,0.1,6.3,0.1,8.1,0.1c1,0,2.2,0,3.8-0.1c1.6,0,3.3-0.1,5.1-0.1c2,0,4,0,6-0.1
			s4.1-0.1,6-0.1c4,0,8.3,0.1,12.9,0.2c4.6,0.1,9.2,0.7,13.8,1.5s9.1,2.3,13.4,4.3c4.3,2,8.3,4.7,11.8,8.2c3.2,3.2,6.1,7.5,8.5,12.7
			c2.4,5.2,3.7,11.6,3.7,19c0,3.9-0.4,7.6-1.2,11c-0.8,3.4-1.8,6.6-3.2,9.5c-1.3,2.9-2.8,5.6-4.5,8c-1.7,2.4-3.4,4.5-5.3,6.2
			c-1.5,1.5-3.4,3.1-5.9,4.8c-2.4,1.7-5.4,3.3-9,4.8c-3.6,1.5-7.7,2.7-12.4,3.7c-4.7,1-10,1.5-16,1.5c-2.3,0-4.9-0.1-7.6-0.2
			c-2.7-0.2-5.3-0.4-7.8-0.6c-2.5-0.2-4.9-0.4-7.2-0.5c-2.3-0.1-4.2-0.2-5.9-0.2c-0.8,0-1.8,0-3.1,0.1c-1.3,0-2.7,0.1-4.2,0.1
			c-1.6,0.1-3.1,0.2-4.6,0.3c-1.5,0.1-3,0.1-4.3,0.1c-1.7,0-2.5-0.5-2.5-1.4c0-0.3,0.1-0.6,0.4-0.9s0.8-0.4,1.6-0.4
			c1.9,0,3.4-0.1,4.5-0.4c1.4-0.3,2.3-1,2.8-2.1c0.5-1.1,0.8-2.6,1-4.5c0.3-2.6,0.5-6.3,0.5-10.9c0-4.6,0.1-9.8,0.1-15.6L620,423
			L620,423z M637.3,436.9c0,6.7,0,12.2,0.1,16.7c0.1,4.4,0.1,7.3,0.3,8.6c0.1,1.6,0.2,3.3,0.4,5.1c0.2,1.8,0.5,3.1,1,3.7
			c0.8,1.2,2.5,2.3,5.2,3.4c2.7,1.1,6.6,1.6,11.6,1.6c5.9,0,11-0.6,15.5-1.8c4.5-1.2,8.7-3.4,12.6-6.7c4.2-3.4,7.1-7.8,8.6-13.2
			c1.6-5.4,2.3-11.3,2.3-17.8c0-3.9-0.4-7.5-1.1-10.8c-0.7-3.3-1.7-6.2-2.8-8.8c-1.1-2.6-2.4-4.8-3.8-6.8c-1.4-1.9-2.9-3.5-4.3-4.8
			c-2.9-2.6-6-4.7-9.2-6.3c-3.2-1.6-6.4-2.8-9.5-3.6c-3.2-0.8-6.2-1.4-9.2-1.6c-2.9-0.2-5.7-0.4-8.2-0.4c-1.4,0-2.9,0.1-4.6,0.2
			c-1.7,0.1-2.8,0.4-3.3,0.7c-1.1,0.4-1.6,1.2-1.6,2.5c-0.1,2.2-0.1,5.5-0.1,10.1c0,4.5,0,9.2,0,14.2L637.3,436.9L637.3,436.9z"/>
		<path fill="#212F4C" d="M747.4,449.9c-0.6,0-1,0.3-1.2,0.9l-6.9,16.7c-0.7,1.6-1.2,3-1.5,4.4c-0.3,1.4-0.4,2.4-0.4,3.2
			c0,1.1,0.4,1.9,1.1,2.6c0.7,0.6,2.1,1,4,1h1.9c0.8,0,1.3,0.1,1.5,0.3c0.2,0.2,0.4,0.5,0.4,0.9c0,0.9-0.7,1.4-2.1,1.4
			c-2.2,0-4.6-0.1-7.3-0.2c-2.7-0.2-5.1-0.2-7.1-0.2c-0.7,0-2.5,0.1-5.4,0.2c-2.9,0.2-6.1,0.2-9.5,0.2c-1.6,0-2.3-0.5-2.3-1.4
			c0-0.8,0.5-1.3,1.5-1.3c0.6,0,1.2,0,1.9-0.1c0.7,0,1.3-0.1,1.9-0.1c2.9-0.5,5.1-1.7,6.5-3.5c1.4-1.9,2.8-4.3,4.2-7.5l33.7-78.4
			c1.4-3.3,2.6-5,3.8-5c1,0,1.7,0.3,2.1,1c0.4,0.6,1,1.6,1.7,3c0.5,1.2,1.5,3.4,2.9,6.8c1.5,3.4,3.2,7.4,5.1,12
			c2,4.6,4.1,9.7,6.5,15.1c2.3,5.4,4.6,10.8,6.9,16.1c2.2,5.3,4.4,10.3,6.4,15c2,4.7,3.7,8.6,5.1,11.7c1.3,2.8,2.4,5.1,3.5,6.8
			c1.1,1.7,2.1,3,3,4s1.8,1.6,2.5,1.9c0.7,0.3,1.4,0.6,2,0.7c1.9,0.3,3.5,0.4,4.8,0.4c1.2,0,1.8,0.4,1.8,1.3c0,0.5-0.3,0.9-1,1.1
			c-0.6,0.2-2.2,0.3-4.6,0.3c-2.3,0-5.6,0-10,0c-4.4,0-9.3-0.1-14.8-0.3c-1.2-0.1-2.1-0.2-2.8-0.2c-0.7,0-1-0.3-1-0.8
			c0-0.8,0.5-1.2,1.6-1.3c0.5-0.1,0.9-0.4,1.2-0.9c0.3-0.5,0.3-1.1,0-1.9l-10-25.1c-0.2-0.6-0.6-0.9-1.3-0.9H747.4L747.4,449.9z
			 M775,442.9c0.6,0,0.8-0.2,0.6-0.7l-12.2-31.7c-0.1-0.2-0.2-0.4-0.2-0.7c0-0.3-0.2-0.4-0.4-0.4c-0.2,0-0.3,0.1-0.4,0.4
			c-0.1,0.3-0.2,0.5-0.3,0.7L749.6,442c-0.3,0.6-0.1,0.9,0.4,0.9H775L775,442.9z"/>
		<path fill="#212F4C" d="M851.9,445c0,8,0.1,14.1,0.4,18.3c0.2,4.2,1.1,6.8,2.4,8c1.1,1,3,1.7,5.6,2.1c2.7,0.4,6.5,0.6,11.5,0.6
			c3.4,0,6.4-0.2,8.9-0.5c2.5-0.3,4.6-1.3,6.2-3c0.8-0.8,1.5-1.9,2.1-3.4s1-2.9,1.2-4c0.2-1.3,0.7-1.9,1.5-1.9c0.5,0,0.8,0.3,1,0.8
			c0.1,0.5,0.2,1.2,0.2,2c0,0.4,0,1.2-0.1,2.3c-0.1,1.2-0.2,2.5-0.4,4c-0.2,1.5-0.4,3-0.6,4.5c-0.2,1.5-0.4,2.7-0.7,3.6
			c-0.2,0.7-0.4,1.2-0.7,1.7c-0.2,0.4-0.7,0.8-1.2,1c-0.6,0.2-1.4,0.4-2.3,0.5s-2.3,0.1-4,0.1c-9,0-16.7-0.1-23.2-0.3
			c-3.2-0.1-6.2-0.2-9-0.3c-2.8-0.1-5.5-0.1-8.2-0.1c-0.8,0-1.8,0-3.1,0.1c-1.3,0-2.7,0.1-4.3,0.1c-1.6,0.1-3.1,0.2-4.6,0.3
			c-1.5,0.1-3,0.1-4.3,0.1c-1.7,0-2.5-0.5-2.5-1.4c0-0.3,0.1-0.6,0.4-0.9c0.3-0.3,0.8-0.4,1.6-0.4c1.9,0,3.4-0.1,4.5-0.4
			c1.4-0.3,2.3-1,2.8-2.1c0.5-1.1,0.8-2.6,1-4.5c0.3-2.6,0.5-6.3,0.5-10.9c0-4.6,0.1-9.8,0.1-15.6v-22c0-4.7,0-8.5,0-11.4
			c0-3,0-5.5,0-7.3s0-3.3-0.1-4.5c0-1.1-0.1-2.2-0.1-3.2c-0.2-2.2-0.7-3.7-1.4-4.5c-0.7-0.9-2.1-1.6-4.2-2.2
			c-1.1-0.3-2.5-0.4-4.2-0.4c-1.5,0-2.2-0.4-2.2-1.3c0-0.8,0.9-1.2,2.8-1.2c1.5,0,3.1,0,4.8,0.1s3.3,0.1,4.9,0.1
			c1.7,0,3.2,0,4.6,0.1s2.6,0.1,3.5,0.1c0.8,0,2,0,3.5-0.1c1.6,0,3.2-0.1,5-0.1c1.9,0,3.7,0,5.5-0.1c1.8,0,3.3-0.1,4.6-0.1
			c1.9,0,2.8,0.4,2.8,1.2c0,0.9-0.8,1.3-2.3,1.3c-0.8,0-1.6,0-2.5,0.1c-0.9,0-1.7,0.2-2.5,0.4c-1.8,0.3-3,0.9-3.6,1.9
			c-0.6,1-1.1,2.6-1.2,4.8c-0.1,1-0.2,2-0.3,3.2c-0.1,1.1-0.1,2.6-0.1,4.5c0,1.9,0,4.3,0,7.3c0,2.9,0,6.7,0,11.4L851.9,445
			L851.9,445z"/>
		<path fill="#212F4C" d="M915.5,423c0-4.7,0-8.5,0-11.4c0-3,0-5.5,0-7.3c0-1.9,0-3.3-0.1-4.5c0-1.1-0.1-2.2-0.1-3.2
			c-0.2-2.2-0.7-3.7-1.4-4.5c-0.7-0.9-2.1-1.6-4.2-2.2c-0.5-0.2-1.2-0.3-2.2-0.4c-1,0-2-0.1-2.9-0.1c-1.5,0-2.2-0.4-2.2-1.3
			c0-0.8,1-1.2,2.9-1.2c3.4,0,6.9,0,10.5,0.1c3.6,0.1,6.3,0.1,8.1,0.1c0.7,0,2,0,3.8,0c2,0,4.2,0,6.6,0c2.4,0,5,0,7.8,0s5.3,0,7.6,0
			c2.4,0,4.5,0,6.2,0c1.8,0,2.8,0,3.2,0c1.2-0.1,2.2-0.2,3.2-0.3c1-0.1,1.7-0.3,2.2-0.3c0.4-0.1,0.8-0.2,1.1-0.4
			c0.3-0.1,0.7-0.2,1-0.2c0.6,0,0.9,0.4,0.9,1.2c0,0.5-0.1,1.2-0.4,2.3c-0.2,1-0.5,3-0.7,5.8c0,0.3,0,0.8-0.1,1.6
			c0,0.8-0.1,1.6-0.2,2.4c-0.1,0.8-0.2,1.6-0.2,2.4c0,0.8-0.1,1.4-0.2,1.8c-0.1,0.3-0.2,0.7-0.4,1.2c-0.2,0.5-0.5,0.8-1,0.8
			c-0.7,0-1-0.5-1-1.6c0-0.5,0-1.2-0.1-2.1c-0.1-0.9-0.3-1.7-0.7-2.5c-0.5-1.1-1.2-2-2.2-2.9c-1-0.8-3.1-1.4-6.3-1.7
			c-0.6-0.1-1.8-0.2-3.7-0.2c-1.9,0-4-0.1-6.2-0.1c-2.3,0-4.3-0.1-6.3-0.1c-2,0-3.3-0.1-4-0.1c-0.6,0-0.9,0.4-0.9,1.2v30.8
			c0,0.9,0.3,1.3,0.9,1.3c0.7,0,2.1,0,4.2,0c2.2,0,4.6,0,7,0c2.4,0,4.7,0,6.9-0.1c2.2,0,3.6-0.1,4.4-0.2c1.6-0.2,2.8-0.4,3.8-0.6
			c1-0.2,1.8-0.6,2.3-1.3c0.5-0.5,0.9-0.9,1.2-1.2c0.3-0.3,0.6-0.4,0.9-0.4c0.7,0,1,0.4,1,1.3c0,0.4-0.1,1.2-0.2,2.5
			c-0.1,1.3-0.4,3.5-0.8,6.6c-0.2,1.3-0.3,2.9-0.4,4.8s-0.1,3.1-0.1,3.6s-0.1,1.1-0.2,1.8c-0.1,0.7-0.5,1-1.1,1
			c-0.8,0-1.2-0.3-1.2-1c-0.1-0.7-0.1-1.4-0.1-2.2c0-0.8-0.1-1.6-0.3-2.3c-0.4-1.3-1.1-2.3-2.1-3.2c-1-0.9-2.7-1.4-5.1-1.6
			c-0.6-0.1-1.8-0.2-3.7-0.2c-1.9,0-3.9-0.1-6.1-0.1c-2.2,0-4.3-0.1-6.3-0.1c-2,0-3.4-0.1-4.2-0.1c-0.5,0-0.7,0.4-0.7,1.3v10
			c0,1.1,0,2.5,0,4.2c0,1.7,0,3.4,0,5.3c0,1.8,0,3.5,0,5.1c0,1.7,0,2.9,0,3.8c0.1,2.1,0.4,3.9,1,5.2c0.6,1.3,1.5,2.4,2.9,3.1
			c1.3,0.8,3.1,1.3,5.3,1.6c2.2,0.3,5,0.4,8.3,0.4c1.7,0,3.7-0.1,6.1-0.2s4.4-0.6,6.1-1.4c1.7-0.8,2.9-1.9,3.7-3.3
			c0.8-1.4,1.4-3.4,1.9-5.9c0.3-1.3,0.8-1.9,1.5-1.9c0.5,0,0.8,0.3,1,1c0.1,0.6,0.2,1.3,0.2,2c0,0.7,0,1.7-0.1,3
			c-0.1,1.3-0.2,2.7-0.4,4c-0.2,1.4-0.4,2.7-0.6,4c-0.2,1.3-0.4,2.2-0.6,2.8c-0.2,0.8-0.4,1.4-0.7,1.8s-0.7,0.8-1.2,0.9
			c-0.5,0.2-1.2,0.3-2,0.4c-0.8,0-1.8,0.1-2.9,0.1c-9.6,0-17.5-0.1-23.8-0.3c-3.1-0.1-5.9-0.2-8.4-0.3s-4.7-0.1-6.6-0.1
			c-0.8,0-1.8,0-3.1,0.1c-1.3,0-2.7,0.1-4.3,0.1c-1.6,0.1-3.1,0.2-4.6,0.3c-1.5,0.1-3,0.1-4.3,0.1c-1.7,0-2.5-0.5-2.5-1.4
			c0-0.3,0.1-0.6,0.4-0.9c0.3-0.3,0.8-0.4,1.6-0.4c1.9,0,3.4-0.1,4.5-0.4c1.4-0.3,2.3-1,2.8-2.1c0.5-1.1,0.8-2.6,1-4.5
			c0.3-2.6,0.5-6.3,0.5-10.9c0-4.6,0.1-9.8,0.1-15.6L915.5,423L915.5,423z"/>
	</g>
	<g>
		<path fill="#212F4C" d="M220,527.3c0,4.2,0.1,7.3,0.2,9.5s0.5,3.5,1.3,4.2c0.6,0.5,1.5,0.9,2.9,1.1c1.4,0.2,3.4,0.3,6,0.3
			c1.8,0,3.3-0.1,4.6-0.3c1.3-0.2,2.4-0.7,3.2-1.6c0.4-0.4,0.8-1,1.1-1.8c0.3-0.8,0.5-1.5,0.6-2.1c0.1-0.7,0.4-1,0.8-1
			c0.3,0,0.4,0.1,0.5,0.4c0.1,0.3,0.1,0.6,0.1,1c0,0.2,0,0.6-0.1,1.2c0,0.6-0.1,1.3-0.2,2.1c-0.1,0.8-0.2,1.5-0.3,2.3
			c-0.1,0.8-0.2,1.4-0.4,1.9c-0.1,0.4-0.2,0.6-0.3,0.9s-0.3,0.4-0.6,0.5c-0.3,0.1-0.7,0.2-1.2,0.3c-0.5,0-1.2,0.1-2.1,0.1
			c-4.7,0-8.7-0.1-12.1-0.2c-1.7,0-3.2-0.1-4.7-0.1s-2.9,0-4.2,0c-0.4,0-0.9,0-1.6,0c-0.7,0-1.4,0-2.2,0c-0.8,0-1.6,0.1-2.4,0.1
			c-0.8,0-1.5,0-2.3,0c-0.9,0-1.3-0.2-1.3-0.7c0-0.1,0.1-0.3,0.2-0.5c0.1-0.1,0.4-0.2,0.8-0.2c1,0,1.8-0.1,2.4-0.2
			c0.7-0.1,1.2-0.5,1.4-1.1c0.3-0.6,0.4-1.4,0.5-2.3c0.1-1.4,0.2-3.3,0.3-5.7c0-2.4,0-5.1,0-8.1v-11.4c0-2.4,0-4.4,0-5.9
			c0-1.6,0-2.8,0-3.8c0-1,0-1.7,0-2.3c0-0.6,0-1.1,0-1.6c-0.1-1.1-0.3-1.9-0.7-2.4c-0.4-0.5-1.1-0.8-2.2-1.1
			c-0.6-0.1-1.3-0.2-2.2-0.2c-0.8,0-1.1-0.2-1.1-0.7c0-0.4,0.5-0.6,1.4-0.6c0.8,0,1.6,0,2.5,0c0.9,0,1.7,0,2.6,0c0.9,0,1.7,0,2.4,0
			c0.7,0,1.3,0,1.8,0c0.4,0,1,0,1.8,0c0.8,0,1.7,0,2.6,0c1,0,1.9,0,2.9,0c0.9,0,1.7,0,2.4,0c1,0,1.4,0.2,1.4,0.6
			c0,0.5-0.4,0.7-1.2,0.7c-0.4,0-0.8,0-1.3,0c-0.5,0-0.9,0.1-1.3,0.2c-0.9,0.1-1.5,0.5-1.9,1c-0.3,0.5-0.5,1.4-0.6,2.5
			c0,0.5-0.1,1.1-0.1,1.6c0,0.6,0,1.4,0,2.3s0,2.2,0,3.8c0,1.5,0,3.5,0,5.9L220,527.3L220,527.3z"/>
		<path fill="#212F4C" d="M248.7,515.9c0-2.4,0-4.4,0-5.9c0-1.6,0-2.8,0-3.8c0-1,0-1.7,0-2.3c0-0.6,0-1.2-0.1-1.7
			c-0.1-1.2-0.3-2-0.7-2.4c-0.4-0.4-1.1-0.8-2.2-1.1c-0.3-0.1-0.6-0.2-1.1-0.2c-0.5,0-1,0-1.4,0c-0.8,0-1.1-0.2-1.1-0.7
			c0-0.4,0.5-0.6,1.4-0.6c0.9,0,1.9,0,2.8,0c1,0,1.9,0,2.8,0c0.9,0,1.8,0,2.5,0c0.8,0,1.4,0,1.9,0c0.4,0,1,0,1.7,0
			c0.7,0,1.5,0,2.3,0c0.8,0,1.6,0,2.4,0c0.8,0,1.5,0,2.1,0c1,0,1.4,0.2,1.4,0.6c0,0.5-0.4,0.7-1.1,0.7c-0.4,0-0.7,0-1,0
			c-0.3,0-0.6,0.1-1,0.2c-0.9,0.1-1.5,0.5-1.8,1c-0.3,0.5-0.5,1.4-0.6,2.5c0,0.5-0.1,1.1-0.1,1.6c0,0.6,0,1.4,0,2.3s0,2.2,0,3.8
			c0,1.5,0,3.5,0,5.9v9.1c0,2.4,0.1,4.4,0.3,6.1c0.2,1.7,0.6,3.1,1,4.3c0.4,1.2,1,2.2,1.6,3c0.6,0.8,1.4,1.5,2.2,2.2
			c1.5,1.2,3,1.9,4.5,2.2c1.5,0.3,2.8,0.4,4,0.4c1.5,0,3-0.2,4.6-0.7c1.6-0.5,3.1-1.4,4.4-2.7c0.9-0.9,1.6-1.9,2.2-3
			c0.5-1.1,0.9-2.4,1.2-3.7c0.3-1.3,0.4-2.7,0.5-4.3c0-1.5,0.1-3.1,0.1-4.8v-8.2c0-2.4,0-4.4,0-5.9c0-1.6,0-2.8,0-3.8
			c0-1,0-1.7-0.1-2.3c0-0.6,0-1.1,0-1.6c-0.1-1.1-0.3-1.9-0.7-2.4c-0.4-0.5-1.1-0.8-2.1-1.1c-0.3-0.1-0.6-0.2-1.1-0.2
			c-0.5,0-0.9,0-1.3,0c-0.8,0-1.1-0.2-1.1-0.7c0-0.4,0.5-0.6,1.4-0.6c0.9,0,1.8,0,2.7,0c0.9,0,1.8,0,2.6,0s1.7,0,2.7,0.1
			c0.2,0,0.6,0,1.2,0c0.6,0,1.3,0,2,0c0.8,0,1.6,0,2.4,0c0.8,0,1.5,0,2.2,0c0.9,0,1.4,0.2,1.4,0.6c0,0.5-0.4,0.7-1.1,0.7
			c-0.4,0-0.7,0-1,0c-0.3,0-0.6,0.1-1,0.2c-0.9,0.1-1.5,0.5-1.8,1c-0.3,0.5-0.5,1.4-0.6,2.5c0,0.5,0,1.1,0,1.6c0,0.6,0,1.4-0.1,2.3
			s0,2.2,0,3.8c0,1.5,0,3.5,0,5.9v6.9c0,1.8-0.1,3.6-0.2,5.4s-0.4,3.6-0.9,5.3c-0.5,1.7-1.1,3.3-1.9,4.8s-2,2.8-3.4,4
			c-2.4,2-4.8,3.3-7.2,3.8c-2.4,0.6-4.8,0.8-6.9,0.8c-0.9,0-1.9,0-3.2-0.1c-1.2,0-2.6-0.2-4-0.5c-1.4-0.3-2.8-0.7-4.2-1.3
			c-1.4-0.6-2.7-1.4-4-2.5c-1.7-1.5-3.2-3.5-4.3-6.2c-1.2-2.6-1.8-6.3-1.8-11L248.7,515.9L248.7,515.9z"/>
		<path fill="#212F4C" d="M318.4,501.1l-10,0.2c-1.9,0-3.4,0.2-4.3,0.5c-0.9,0.3-1.7,0.8-2.2,1.5c-0.4,0.5-0.6,0.9-0.8,1.3
			s-0.3,0.7-0.4,1c-0.1,0.6-0.4,0.8-0.8,0.8c-0.4,0-0.6-0.4-0.6-1.1c0-0.3,0.1-0.8,0.2-1.6c0.1-0.8,0.3-1.6,0.5-2.5
			c0.2-0.9,0.3-1.7,0.5-2.4c0.1-0.7,0.3-1.2,0.3-1.3c0.1-0.8,0.4-1.2,0.8-1.2c0.3,0,0.6,0.1,1,0.3c0.4,0.2,1,0.4,1.9,0.5
			c1,0.1,2.1,0.2,3.3,0.2c1.2,0,2.3,0.1,3.4,0.1h27.2c1.1,0,2,0,2.7-0.1c0.7,0,1.4-0.1,1.9-0.2c0.6-0.1,1-0.2,1.3-0.2
			c0.3,0,0.5-0.1,0.6-0.1c0.4,0,0.5,0.5,0.5,1.4c0,0.4,0,0.9,0,1.6c0,0.7,0,1.4,0,2.3c0,0.8,0,1.6,0,2.3c0,0.7,0,1.3,0,1.7
			c-0.1,0.7-0.3,1.1-0.6,1.1c-0.5,0-0.7-0.4-0.8-1.3l-0.1-0.7c0-0.4-0.2-0.8-0.5-1.3c-0.3-0.4-0.7-0.8-1.3-1.2
			c-0.6-0.4-1.4-0.7-2.4-0.9c-1-0.3-2.3-0.4-3.8-0.4l-8.5-0.1v26.2c0,3,0,5.7,0.1,8.1c0,2.4,0.1,4.3,0.3,5.8
			c0.1,0.9,0.3,1.7,0.6,2.3c0.3,0.6,1,1,2,1.1c0.5,0.1,1,0.2,1.7,0.2c0.7,0,1.2,0,1.8,0c0.4,0,0.7,0.1,0.8,0.2
			c0.1,0.1,0.2,0.3,0.2,0.5c0,0.5-0.4,0.7-1.3,0.7c-2.2,0-4.4,0-6.4-0.1c-2-0.1-3.5-0.1-4.5-0.1c-0.4,0-1,0-1.6,0
			c-0.7,0-1.4,0-2.3,0.1s-1.7,0-2.6,0.1s-1.6,0-2.3,0c-0.9,0-1.3-0.2-1.3-0.7c0-0.1,0.1-0.3,0.2-0.5c0.1-0.1,0.4-0.2,0.8-0.2
			c1,0,1.8-0.1,2.4-0.2c0.7-0.1,1.2-0.5,1.4-1.1c0.3-0.6,0.4-1.4,0.5-2.3c0.1-1.4,0.2-3.3,0.3-5.7c0-2.4,0-5.1,0-8.1L318.4,501.1
			L318.4,501.1z"/>
		<path fill="#212F4C" d="M392.6,518.2c0.3,0,0.4-0.1,0.4-0.5v-1.4c0-2.4,0-4.4,0-6c0-1.6,0-3,0-4s0-1.9-0.1-2.5c0-0.6,0-1.2,0-1.7
			c-0.1-1.1-0.3-1.9-0.7-2.4c-0.4-0.5-1.1-0.8-2.2-1.1c-0.3-0.1-0.6-0.2-1.1-0.2c-0.5,0-1,0-1.4,0c-0.8,0-1.1-0.2-1.1-0.7
			c0-0.4,0.5-0.6,1.4-0.6c0.9,0,1.9,0,2.9,0c1,0,1.9,0,2.9,0c0.9,0,1.8,0,2.5,0c0.8,0,1.4,0,1.8,0c0.4,0,1,0,1.7,0
			c0.7,0,1.5,0,2.3,0c0.8,0,1.6,0,2.4,0c0.8,0,1.5,0,2.2,0c1,0,1.4,0.2,1.4,0.6c0,0.5-0.4,0.7-1.2,0.7c-0.5,0-1.2,0.1-2,0.2
			c-0.9,0.1-1.5,0.5-1.8,1c-0.3,0.5-0.5,1.4-0.6,2.5c0,0.5-0.1,1.1-0.1,1.6c0,0.6,0,1.4,0,2.3c0,1,0,2.2,0,3.8c0,1.5,0,3.5,0,5.9
			v11.4c0,3,0,5.7,0,8.1c0,2.4,0.1,4.3,0.3,5.8c0.1,0.9,0.3,1.7,0.6,2.3c0.3,0.6,1,1,2,1.1c0.5,0.1,1,0.2,1.6,0.2c0.6,0,1.2,0,1.8,0
			c0.4,0,0.6,0.1,0.8,0.2c0.2,0.1,0.3,0.3,0.3,0.5c0,0.5-0.5,0.7-1.4,0.7c-2.2,0-4.3,0-6.3-0.1s-3.4-0.1-4.3-0.1c-0.4,0-1,0-1.7,0
			c-0.7,0-1.5,0-2.3,0.1s-1.7,0-2.6,0.1s-1.6,0-2.3,0c-1,0-1.4-0.2-1.4-0.7c0-0.1,0.1-0.3,0.2-0.5c0.1-0.1,0.4-0.2,0.8-0.2
			c1,0,1.8-0.1,2.4-0.2c0.7-0.1,1.2-0.5,1.4-1.1c0.3-0.6,0.4-1.4,0.5-2.3c0.1-1.4,0.2-3.2,0.3-5.6c0-2.4,0-5,0-8v-5
			c0-0.3-0.1-0.4-0.4-0.4h-25.3c-0.3,0-0.5,0.1-0.5,0.4v5c0,3,0,5.7,0.1,8c0,2.4,0.1,4.3,0.3,5.7c0.1,0.9,0.3,1.7,0.6,2.3
			c0.3,0.6,1,1,2,1.1c0.5,0.1,1,0.2,1.7,0.2c0.7,0,1.2,0,1.8,0c0.4,0,0.7,0.1,0.8,0.2c0.1,0.1,0.2,0.3,0.2,0.5
			c0,0.5-0.5,0.7-1.4,0.7c-2.2,0-4.3,0-6.4-0.1s-3.6-0.1-4.5-0.1c-0.4,0-1,0-1.6,0c-0.7,0-1.4,0-2.3,0.1c-0.8,0-1.6,0-2.5,0.1
			s-1.6,0-2.3,0c-0.9,0-1.3-0.2-1.3-0.7c0-0.1,0.1-0.3,0.2-0.5c0.1-0.1,0.4-0.2,0.8-0.2c1,0,1.8-0.1,2.4-0.2
			c0.7-0.1,1.2-0.5,1.4-1.1c0.3-0.6,0.4-1.4,0.5-2.3c0.1-1.4,0.2-3.3,0.3-5.7c0-2.4,0-5.1,0-8.1v-11.4c0-2.4,0-4.4,0-5.9
			c0-1.6,0-2.8,0-3.8c0-1,0-1.7,0-2.3c0-0.6,0-1.1,0-1.6c-0.1-1.1-0.3-1.9-0.7-2.4c-0.4-0.5-1.1-0.8-2.2-1.1
			c-0.3-0.1-0.6-0.2-1.1-0.2c-0.5,0-1,0-1.5,0c-0.8,0-1.1-0.2-1.1-0.7c0-0.4,0.5-0.6,1.4-0.6c0.9,0,1.9,0,2.8,0c1,0,1.9,0,2.7,0
			c0.9,0,1.7,0,2.5,0c0.7,0,1.3,0,1.8,0c0.4,0,1,0,1.7,0c0.7,0,1.5,0,2.3,0c0.9,0,1.7,0,2.6,0c0.9,0,1.6,0,2.3,0
			c0.9,0,1.4,0.2,1.4,0.6c0,0.5-0.4,0.7-1.2,0.7c-0.5,0-1.1,0.1-1.9,0.2c-0.9,0.1-1.5,0.5-1.9,1c-0.3,0.5-0.5,1.4-0.6,2.5
			c0,0.5-0.1,1.1-0.1,1.7c0,0.6,0,1.5,0,2.6c0,1,0,2.3,0,4c0,1.6,0,3.6,0,6v1.4c0,0.3,0.1,0.5,0.5,0.5L392.6,518.2L392.6,518.2z"/>
		<path fill="#212F4C" d="M423.9,515.9c0-2.4,0-4.4,0-5.9c0-1.6,0-2.8,0-3.8c0-1,0-1.7,0-2.3c0-0.6,0-1.1,0-1.6
			c-0.1-1.1-0.3-1.9-0.7-2.4c-0.4-0.5-1.1-0.8-2.2-1.1c-0.3-0.1-0.6-0.2-1.1-0.2c-0.5,0-1,0-1.5,0c-0.8,0-1.1-0.2-1.1-0.7
			c0-0.4,0.5-0.6,1.5-0.6c1.8,0,3.6,0,5.4,0.1s3.3,0.1,4.2,0.1c0.4,0,1,0,2,0c1,0,2.2,0,3.4,0c1.3,0,2.6,0,4,0c1.4,0,2.7,0,4,0
			c1.3,0,2.3,0,3.2,0c0.9,0,1.5,0,1.7,0c0.6,0,1.2-0.1,1.7-0.2c0.5-0.1,0.9-0.1,1.1-0.2c0.2,0,0.4-0.1,0.6-0.2
			c0.2-0.1,0.3-0.1,0.5-0.1c0.3,0,0.5,0.2,0.5,0.6c0,0.3-0.1,0.6-0.2,1.2c-0.1,0.5-0.2,1.5-0.3,3c0,0.1,0,0.4,0,0.8
			c0,0.4-0.1,0.8-0.1,1.3c0,0.4-0.1,0.9-0.1,1.3c0,0.4-0.1,0.7-0.1,0.9c0,0.1-0.1,0.4-0.2,0.6c-0.1,0.3-0.3,0.4-0.5,0.4
			c-0.4,0-0.5-0.3-0.5-0.8c0-0.3,0-0.6-0.1-1.1c0-0.5-0.2-0.9-0.4-1.3c-0.3-0.6-0.6-1.1-1.1-1.5c-0.5-0.4-1.6-0.7-3.3-0.9
			c-0.3,0-1-0.1-1.9-0.1c-1,0-2.1,0-3.2-0.1s-2.3,0-3.3-0.1c-1,0-1.7,0-2.1,0c-0.3,0-0.5,0.2-0.5,0.6v16c0,0.5,0.1,0.7,0.5,0.7
			c0.4,0,1.1,0,2.2,0c1.2,0,2.4,0,3.7,0c1.3,0,2.5,0,3.6,0c1.1,0,1.9-0.1,2.3-0.1c0.8-0.1,1.5-0.2,2-0.3c0.5-0.1,0.9-0.3,1.2-0.7
			c0.3-0.3,0.5-0.5,0.6-0.6c0.1-0.1,0.3-0.2,0.5-0.2c0.4,0,0.5,0.2,0.5,0.7c0,0.2,0,0.6-0.1,1.3s-0.2,1.8-0.4,3.4
			c-0.1,0.7-0.2,1.5-0.2,2.5c0,1-0.1,1.6-0.1,1.9c0,0.3,0,0.6-0.1,0.9c-0.1,0.4-0.3,0.5-0.6,0.5c-0.4,0-0.6-0.2-0.6-0.5
			c0-0.4-0.1-0.7-0.1-1.1s0-0.8-0.1-1.2c-0.2-0.7-0.6-1.2-1.1-1.7c-0.5-0.5-1.4-0.7-2.7-0.8c-0.3,0-0.9-0.1-1.9-0.1
			c-1,0-2,0-3.2-0.1c-1.1,0-2.2,0-3.3-0.1s-1.8,0-2.2,0c-0.3,0-0.4,0.2-0.4,0.7v5.2c0,0.6,0,1.3,0,2.2c0,0.9,0,1.8,0,2.7
			c0,0.9,0,1.8,0,2.7c0,0.9,0,1.5,0,2c0,1.1,0.2,2,0.5,2.7c0.3,0.7,0.8,1.2,1.5,1.6c0.7,0.4,1.6,0.7,2.7,0.8
			c1.1,0.1,2.6,0.2,4.3,0.2c0.9,0,1.9,0,3.2-0.1c1.2-0.1,2.3-0.3,3.2-0.7c0.9-0.4,1.5-1,1.9-1.7s0.7-1.8,1-3.1c0.1-0.7,0.4-1,0.8-1
			c0.3,0,0.4,0.2,0.5,0.5c0.1,0.3,0.1,0.7,0.1,1s0,0.9-0.1,1.6c0,0.7-0.1,1.4-0.2,2.1c-0.1,0.7-0.2,1.4-0.3,2.1
			c-0.1,0.7-0.2,1.1-0.3,1.4c-0.1,0.4-0.2,0.7-0.4,1c-0.1,0.2-0.4,0.4-0.6,0.5c-0.3,0.1-0.6,0.2-1,0.2c-0.4,0-0.9,0-1.5,0
			c-5,0-9.1-0.1-12.4-0.2c-1.6,0-3.1-0.1-4.3-0.1c-1.3,0-2.4,0-3.4,0c-0.4,0-0.9,0-1.6,0c-0.7,0-1.4,0-2.2,0c-0.8,0-1.6,0.1-2.4,0.1
			c-0.8,0-1.5,0-2.3,0c-0.9,0-1.3-0.2-1.3-0.7c0-0.1,0.1-0.3,0.2-0.5c0.1-0.1,0.4-0.2,0.8-0.2c1,0,1.8-0.1,2.4-0.2
			c0.7-0.1,1.2-0.5,1.4-1.1c0.3-0.6,0.4-1.4,0.5-2.3c0.1-1.4,0.2-3.3,0.3-5.7c0-2.4,0-5.1,0-8.1L423.9,515.9L423.9,515.9z"/>
		<path fill="#212F4C" d="M467.8,515.9c0-2.4,0-4.4,0-5.9c0-1.6,0-2.8,0-3.8c0-1,0-1.7,0-2.3c0-0.6,0-1.1,0-1.6
			c-0.1-1.1-0.3-1.9-0.7-2.4c-0.4-0.5-1.1-0.8-2.2-1.1c-0.3-0.1-0.6-0.2-1.1-0.2c-0.5,0-1,0-1.5,0c-0.8,0-1.1-0.2-1.1-0.7
			c0-0.4,0.5-0.6,1.5-0.6c1.8,0,3.6,0,5.4,0.1c1.8,0,3.1,0.1,3.8,0.1c0.6,0,1.3,0,2.3,0c1,0,2,0,3,0c1.1,0,2.1,0,3,0
			c0.9,0,1.7,0,2.2,0c2.1,0,4.3,0.2,6.6,0.5c2.3,0.3,4.3,1.1,6.1,2.3c0.5,0.3,1,0.8,1.5,1.3c0.6,0.6,1.1,1.3,1.6,2
			c0.5,0.8,0.9,1.6,1.2,2.6c0.3,0.9,0.5,1.9,0.5,3c0,2.4-0.7,4.8-2.2,7s-3.8,4.7-7.1,7.3c3,3.7,5.7,6.9,8.1,9.8
			c2.4,2.9,4.6,5.4,6.6,7.4c0.9,0.9,1.8,1.7,2.5,2.2c0.8,0.6,1.4,1,2.1,1.3c0.6,0.3,1.1,0.5,1.6,0.6c0.4,0.1,0.8,0.2,1,0.2
			c0.4,0.1,0.6,0.1,0.8,0.1c0.3,0,0.5,0,0.8,0s0.5,0.1,0.6,0.2c0.1,0.1,0.2,0.3,0.2,0.5c0,0.5-0.4,0.7-1.3,0.7H507
			c-1.9,0-3.4-0.1-4.4-0.3c-1.1-0.2-2-0.5-2.9-1c-1.5-0.7-2.9-1.8-4.3-3.4c-1.4-1.5-3-3.6-4.9-6.1c-0.7-0.9-1.3-1.8-2-2.7
			c-0.7-0.9-1.3-1.8-1.9-2.7c-0.6-0.8-1.1-1.6-1.5-2.2c-0.4-0.6-0.8-1-1-1.3c-0.3-0.3-0.7-0.5-1.2-0.5l-6-0.1
			c-0.4,0-0.5,0.2-0.5,0.5v0.9c0,3,0,5.8,0.1,8.2c0,2.4,0.1,4.3,0.3,5.6c0.1,1,0.3,1.7,0.6,2.3c0.3,0.6,1,1,2,1.1
			c0.5,0.1,1.1,0.2,1.7,0.2s1.2,0,1.6,0c0.3,0,0.5,0.1,0.6,0.2c0.1,0.1,0.2,0.3,0.2,0.5c0,0.5-0.5,0.7-1.4,0.7c-1,0-2,0-3.1,0
			c-1.1,0-2.2,0-3.2-0.1c-1,0-1.9,0-2.6-0.1c-0.8,0-1.3,0-1.5,0c-0.3,0-0.8,0-1.4,0c-0.7,0-1.4,0-2.2,0.1c-0.8,0-1.6,0-2.4,0.1
			c-0.8,0-1.5,0-2.2,0c-0.9,0-1.3-0.2-1.3-0.7c0-0.1,0.1-0.3,0.2-0.5c0.1-0.1,0.4-0.2,0.8-0.2c1,0,1.8-0.1,2.4-0.2
			c0.7-0.1,1.2-0.5,1.4-1.1c0.3-0.6,0.4-1.4,0.5-2.3c0.1-1.4,0.2-3.3,0.3-5.7c0-2.4,0-5.1,0-8.1L467.8,515.9L467.8,515.9z
			 M476.4,520.9c0,0.6,0.2,0.9,0.6,1.1c0.7,0.3,1.5,0.4,2.4,0.5c0.9,0.1,1.8,0.1,2.7,0.1c1.3,0,2.3-0.1,2.9-0.2
			c0.6-0.1,1.2-0.4,1.8-0.8c1-0.7,2-1.8,2.9-3.3c0.9-1.5,1.4-3.6,1.4-6.3c0-2.3-0.3-4.2-1-5.6s-1.5-2.7-2.6-3.5
			c-1-0.9-2.2-1.5-3.4-1.8c-1.2-0.3-2.3-0.5-3.2-0.5c-0.9,0-1.7,0-2.4,0c-0.7,0-1.2,0.1-1.6,0.2c-0.4,0.1-0.6,0.5-0.6,0.9
			L476.4,520.9L476.4,520.9z"/>
		<path fill="#212F4C" d="M523,529.8c-0.3,0-0.5,0.1-0.6,0.5l-3.6,8.7c-0.4,0.8-0.6,1.6-0.8,2.3c-0.1,0.7-0.2,1.3-0.2,1.7
			c0,0.6,0.2,1,0.6,1.3c0.4,0.3,1.1,0.5,2.1,0.5h1c0.4,0,0.7,0.1,0.8,0.2c0.1,0.1,0.2,0.3,0.2,0.5c0,0.5-0.4,0.7-1.1,0.7
			c-1.1,0-2.4,0-3.8-0.1c-1.4-0.1-2.6-0.1-3.7-0.1c-0.4,0-1.3,0-2.8,0.1c-1.5,0.1-3.2,0.1-5,0.1c-0.8,0-1.2-0.2-1.2-0.7
			c0-0.5,0.3-0.7,0.8-0.7c0.3,0,0.6,0,1,0c0.4,0,0.7,0,1,0c1.5-0.3,2.7-0.9,3.4-1.8c0.7-1,1.5-2.3,2.2-3.9l17.5-40.8
			c0.7-1.7,1.4-2.6,2-2.6c0.5,0,0.9,0.2,1.1,0.5c0.2,0.3,0.5,0.9,0.9,1.6c0.3,0.6,0.8,1.8,1.5,3.5c0.8,1.8,1.6,3.8,2.7,6.3
			c1,2.4,2.1,5,3.4,7.9c1.2,2.8,2.4,5.6,3.6,8.4c1.2,2.8,2.3,5.4,3.3,7.8c1,2.4,1.9,4.5,2.6,6.1c0.7,1.5,1.3,2.7,1.8,3.5
			c0.6,0.9,1.1,1.6,1.6,2.1c0.5,0.5,0.9,0.8,1.3,1c0.4,0.2,0.7,0.3,1,0.3c1,0.1,1.8,0.2,2.5,0.2c0.6,0,0.9,0.2,0.9,0.7
			c0,0.3-0.2,0.4-0.5,0.5c-0.3,0.1-1.1,0.1-2.4,0.1c-1.2,0-2.9,0-5.2,0c-2.3,0-4.9,0-7.7-0.1c-0.6,0-1.1-0.1-1.4-0.1
			s-0.5-0.2-0.5-0.4c0-0.4,0.3-0.6,0.8-0.7c0.3,0,0.5-0.2,0.6-0.5c0.1-0.3,0.1-0.6,0-1l-5.2-13c-0.1-0.3-0.3-0.5-0.7-0.5H523
			L523,529.8z M537.4,526.2c0.3,0,0.4-0.1,0.3-0.4l-6.3-16.5c0-0.1-0.1-0.2-0.1-0.4c0-0.1-0.1-0.2-0.2-0.2s-0.2,0.1-0.2,0.2
			c0,0.1-0.1,0.3-0.1,0.4l-6.5,16.4c-0.1,0.3-0.1,0.5,0.2,0.5L537.4,526.2L537.4,526.2z"/>
		<path fill="#212F4C" d="M572.5,537.3c0.1,2.5,0.3,4.3,0.7,5.2c0.4,0.9,0.9,1.5,1.6,1.8c0.6,0.2,1.1,0.3,1.8,0.4
			c0.6,0,1.2,0.1,1.8,0.1c0.8,0,1.1,0.2,1.1,0.7c0,0.5-0.5,0.7-1.5,0.7c-2.2,0-4,0-5.5-0.1c-1.5-0.1-2.6-0.1-3.2-0.1
			c-0.3,0-1.2,0-2.6,0.1c-1.4,0.1-3,0.1-4.7,0.1c-0.5,0-0.8,0-1.1-0.1c-0.3-0.1-0.4-0.3-0.4-0.6c0-0.5,0.4-0.7,1.1-0.7
			c0.5,0,1,0,1.5-0.1s1.1-0.1,1.5-0.2c0.5-0.1,0.8-0.3,1.1-0.6c0.3-0.3,0.5-0.8,0.6-1.4c0.1-0.6,0.3-1.4,0.3-2.3
			c0-0.9,0.1-2.1,0.1-3.5l0.6-38.4c0-0.7,0.1-1.2,0.3-1.6c0.2-0.4,0.5-0.6,0.8-0.6c0.4,0,0.9,0.2,1.3,0.6c0.5,0.4,1,0.9,1.6,1.5
			c0.2,0.2,0.9,1,2.2,2.3s2.9,2.9,4.8,4.8c1.9,1.9,4.1,4.1,6.4,6.4c2.4,2.4,4.8,4.7,7.2,7.1c1.1,1.1,2.5,2.5,4,4s3.1,3.1,4.5,4.6
			s2.7,2.8,3.9,3.9s1.8,1.8,2.1,2h0.3l-0.7-28.8c0-2-0.2-3.4-0.6-4.1s-0.9-1.3-1.7-1.6c-0.5-0.2-1.1-0.3-1.8-0.3c-0.7,0-1.3,0-1.7,0
			c-0.7,0-1.1-0.2-1.1-0.7c0-0.4,0.6-0.6,1.7-0.6c1.8,0,3.5,0,5.1,0.1c1.6,0,2.8,0.1,3.5,0.1c0.4,0,1.2,0,2.4-0.1
			c1.2,0,2.6-0.1,4.2-0.1c1,0,1.5,0.2,1.5,0.6c0,0.5-0.4,0.7-1.1,0.7c-0.4,0-0.7,0-1,0c-0.3,0-0.7,0.1-1.1,0.2
			c-0.9,0.3-1.5,0.8-1.9,1.5c-0.3,0.7-0.5,2-0.6,3.9l-0.8,40.9c0,0.7-0.1,1.2-0.3,1.6c-0.2,0.3-0.5,0.5-0.7,0.5
			c-0.6,0-1.1-0.1-1.5-0.4c-0.5-0.3-0.9-0.6-1.2-1c-1.1-1-2.4-2.2-3.9-3.6s-3.1-3-4.9-4.7c-1.8-1.7-3.6-3.4-5.4-5.2
			s-3.7-3.5-5.4-5.2c-1.8-1.7-3.6-3.5-5.4-5.3c-1.8-1.8-3.3-3.4-4.8-4.9c-1.4-1.5-2.6-2.7-3.6-3.8c-1-1-1.6-1.7-1.9-2h-0.2
			L572.5,537.3z"/>
		<path fill="#212F4C" d="M656.8,546.6c-1.9-0.2-3.6-0.7-5.1-1.3c-0.6-0.3-0.9-0.5-1.1-0.8c-0.1-0.3-0.2-0.7-0.2-1.4
			c0-1.8,0-3.5,0.1-5.2c0.1-1.7,0.2-2.8,0.2-3.4c0-1.1,0.3-1.7,0.8-1.7c0.3,0,0.5,0.1,0.6,0.3c0.1,0.2,0.1,0.5,0.1,0.7
			c0,0.4,0,0.9,0.1,1.6c0.1,0.6,0.3,1.2,0.5,1.8c0.4,1.2,0.9,2.2,1.7,3c0.8,0.8,1.6,1.5,2.6,1.9c1,0.5,2,0.8,3.1,1.1
			c1.1,0.2,2.2,0.3,3.2,0.3c2.9,0,5.2-0.8,6.8-2.4c1.6-1.6,2.5-3.5,2.5-5.8c0-0.7-0.1-1.4-0.2-2.1c-0.1-0.7-0.4-1.4-0.9-2.2
			s-1.1-1.5-2-2.3c-0.9-0.8-2.1-1.6-3.5-2.5l-3.9-2.3c-2-1.2-3.7-2.3-5-3.5c-1.4-1.1-2.4-2.3-3.2-3.5c-0.8-1.2-1.4-2.4-1.8-3.7
			c-0.4-1.3-0.5-2.6-0.5-4c0-2,0.4-3.8,1.3-5.4s2.1-3,3.6-4.1c1.5-1.1,3.3-2,5.4-2.6c2.1-0.6,4.3-0.9,6.6-0.9c2.2,0,4.1,0.1,5.8,0.3
			c1.6,0.2,2.9,0.5,3.8,0.7c0.6,0.1,0.9,0.4,0.9,0.8c0,0.4,0,1.2-0.1,2.3c-0.1,1.1-0.1,2.9-0.1,5.5c0,1.4-0.3,2.1-0.8,2.1
			c-0.5,0-0.7-0.4-0.7-1.1c0-0.3-0.1-0.9-0.3-1.7s-0.7-1.7-1.4-2.6c-0.5-0.6-1.3-1.3-2.5-2c-1.1-0.7-2.8-1.1-5-1.1
			c-1.2,0-2.4,0.1-3.5,0.5c-1.1,0.3-2.1,0.8-2.9,1.3c-0.8,0.6-1.5,1.3-2,2.2c-0.5,0.9-0.8,1.9-0.8,3c0,0.7,0.1,1.4,0.3,2.1
			c0.2,0.7,0.5,1.3,1,2c0.5,0.7,1.2,1.4,2.1,2.1c0.9,0.7,2.1,1.5,3.7,2.3l2.7,1.5c2.2,1.2,4,2.5,5.5,3.7c1.5,1.2,2.7,2.5,3.6,3.8
			c0.9,1.3,1.5,2.6,1.9,4c0.4,1.3,0.6,2.8,0.6,4.2c0,2.4-0.5,4.6-1.5,6.6c-1,2-2.7,3.8-5.2,5.5c-1.6,1.2-3.5,1.9-5.5,2.2
			c-2,0.3-3.9,0.5-5.7,0.5C660.6,547,658.7,546.8,656.8,546.6z"/>
		<path fill="#212F4C" d="M707.9,545.4c-3.8-1-7.3-2.9-10.3-5.4c-1.7-1.4-3-2.9-4.1-4.5s-1.9-3.2-2.6-4.9c-0.6-1.6-1.1-3.3-1.3-5
			s-0.4-3.3-0.4-4.8c0-1.1,0.1-2.4,0.3-3.9c0.2-1.4,0.6-3,1.2-4.5c0.6-1.6,1.3-3.2,2.4-4.8c1-1.6,2.3-3.2,4-4.6
			c2.4-2.1,5.4-3.8,8.7-5c3.4-1.2,7.6-1.8,12.5-1.8c2.1,0,3.9,0.1,5.3,0.2s2.9,0.3,4.5,0.5c1.3,0.2,2.5,0.4,3.5,0.6
			c1.1,0.2,2.1,0.4,3.2,0.5c0.7,0,1,0.3,1,0.8c0,0.3,0,0.6-0.1,1.1c0,0.5-0.1,1.3-0.2,2.5c0,0.6-0.1,1.2-0.1,1.8c0,0.7,0,1.3,0,2
			c0,0.7,0,1.3,0,1.9s0,1,0,1.3c0,0.5-0.1,0.8-0.3,1.1c-0.1,0.3-0.3,0.5-0.6,0.5c-0.5,0-0.7-0.5-0.7-1.4c0-1-0.3-2.1-0.7-3.1
			c-0.4-1.1-1-2-1.9-2.9c-1.2-1.1-2.8-2-5-2.7c-2.2-0.7-4.8-1.1-7.9-1.1c-2.9,0-5.4,0.3-7.4,0.8c-2,0.6-3.7,1.5-5.3,2.8
			c-1.2,1.1-2.2,2.3-3,3.5c-0.8,1.3-1.4,2.7-1.9,4.1c-0.5,1.4-0.8,2.9-1,4.5c-0.2,1.5-0.3,3.1-0.3,4.7c0,3.9,0.7,7.2,2,10.1
			c1.3,2.8,3,5.2,5.1,7.1c2.1,1.9,4.3,3.3,6.8,4.2c2.5,0.9,4.8,1.4,7.1,1.4c2.9,0,5.3-0.2,7.2-0.6c1.8-0.4,3.4-1.4,4.7-2.8
			c0.6-0.7,1.1-1.4,1.5-2.2c0.4-0.8,0.7-1.5,0.8-2.1c0.1-0.9,0.4-1.3,0.8-1.3c0.3,0,0.4,0.1,0.6,0.4c0.1,0.3,0.2,0.5,0.2,0.8
			c0,0.2,0,0.7-0.1,1.4c-0.1,0.7-0.2,1.5-0.3,2.4c-0.1,0.9-0.3,1.8-0.5,2.7c-0.2,0.9-0.3,1.6-0.5,2.2c-0.1,0.6-0.3,1-0.6,1.2
			c-0.2,0.2-0.6,0.5-1.2,0.7c-0.7,0.3-1.5,0.5-2.4,0.7c-0.9,0.2-1.9,0.4-3,0.5c-1.1,0.1-2.2,0.2-3.4,0.2c-1.2,0-2.3,0.1-3.4,0.1
			C716,547,711.7,546.4,707.9,545.4z"/>
		<path fill="#212F4C" d="M785,518.2c0.3,0,0.4-0.1,0.4-0.5v-1.4c0-2.4,0-4.4,0-6c0-1.6,0-3,0-4s0-1.9-0.1-2.5c0-0.6,0-1.2,0-1.7
			c-0.1-1.1-0.3-1.9-0.7-2.4c-0.4-0.5-1.1-0.8-2.2-1.1c-0.3-0.1-0.6-0.2-1.1-0.2c-0.5,0-1,0-1.4,0c-0.8,0-1.1-0.2-1.1-0.7
			c0-0.4,0.5-0.6,1.4-0.6c0.9,0,1.9,0,2.9,0c1,0,1.9,0,2.9,0c0.9,0,1.8,0,2.5,0c0.8,0,1.4,0,1.8,0c0.4,0,1,0,1.7,0
			c0.7,0,1.5,0,2.3,0s1.6,0,2.4,0c0.8,0,1.5,0,2.2,0c1,0,1.4,0.2,1.4,0.6c0,0.5-0.4,0.7-1.2,0.7c-0.5,0-1.2,0.1-2,0.2
			c-0.9,0.1-1.5,0.5-1.8,1c-0.3,0.5-0.5,1.4-0.6,2.5c0,0.5-0.1,1.1-0.1,1.6c0,0.6,0,1.4,0,2.3c0,1,0,2.2,0,3.8c0,1.5,0,3.5,0,5.9
			v11.4c0,3,0,5.7,0,8.1c0,2.4,0.1,4.3,0.3,5.8c0.1,0.9,0.3,1.7,0.6,2.3c0.3,0.6,1,1,2,1.1c0.5,0.1,1,0.2,1.6,0.2s1.2,0,1.8,0
			c0.4,0,0.6,0.1,0.8,0.2c0.2,0.1,0.3,0.3,0.3,0.5c0,0.5-0.5,0.7-1.4,0.7c-2.2,0-4.3,0-6.3-0.1s-3.4-0.1-4.3-0.1c-0.4,0-1,0-1.7,0
			c-0.7,0-1.5,0-2.3,0.1c-0.8,0-1.7,0-2.6,0.1c-0.9,0-1.6,0-2.3,0c-1,0-1.4-0.2-1.4-0.7c0-0.1,0.1-0.3,0.2-0.5
			c0.1-0.1,0.4-0.2,0.8-0.2c1,0,1.8-0.1,2.4-0.2c0.7-0.1,1.2-0.5,1.4-1.1c0.3-0.6,0.4-1.4,0.5-2.3c0.1-1.4,0.2-3.2,0.3-5.6
			c0-2.4,0-5,0-8v-5c0-0.3-0.1-0.4-0.4-0.4h-25.3c-0.3,0-0.5,0.1-0.5,0.4v5c0,3,0,5.7,0.1,8c0,2.4,0.1,4.3,0.3,5.7
			c0.1,0.9,0.3,1.7,0.6,2.3c0.3,0.6,1,1,2,1.1c0.5,0.1,1,0.2,1.7,0.2c0.7,0,1.2,0,1.8,0c0.4,0,0.7,0.1,0.8,0.2
			c0.1,0.1,0.2,0.3,0.2,0.5c0,0.5-0.5,0.7-1.4,0.7c-2.2,0-4.3,0-6.4-0.1s-3.6-0.1-4.5-0.1c-0.4,0-1,0-1.6,0c-0.7,0-1.4,0-2.3,0.1
			c-0.8,0-1.6,0-2.5,0.1c-0.8,0-1.6,0-2.3,0c-0.9,0-1.3-0.2-1.3-0.7c0-0.1,0.1-0.3,0.2-0.5c0.1-0.1,0.4-0.2,0.8-0.2
			c1,0,1.8-0.1,2.4-0.2c0.7-0.1,1.2-0.5,1.4-1.1c0.3-0.6,0.4-1.4,0.5-2.3c0.1-1.4,0.2-3.3,0.3-5.7c0-2.4,0-5.1,0-8.1v-11.4
			c0-2.4,0-4.4,0-5.9c0-1.6,0-2.8,0-3.8c0-1,0-1.7,0-2.3c0-0.6,0-1.1,0-1.6c-0.1-1.1-0.3-1.9-0.7-2.4c-0.4-0.5-1.1-0.8-2.2-1.1
			c-0.3-0.1-0.6-0.2-1.1-0.2s-1,0-1.5,0c-0.8,0-1.1-0.2-1.1-0.7c0-0.4,0.5-0.6,1.4-0.6c0.9,0,1.9,0,2.8,0c1,0,1.9,0,2.7,0
			c0.9,0,1.7,0,2.5,0c0.7,0,1.3,0,1.8,0c0.4,0,1,0,1.7,0c0.7,0,1.5,0,2.3,0c0.9,0,1.7,0,2.6,0c0.9,0,1.6,0,2.3,0
			c0.9,0,1.4,0.2,1.4,0.6c0,0.5-0.4,0.7-1.2,0.7c-0.5,0-1.1,0.1-1.9,0.2c-0.9,0.1-1.5,0.5-1.9,1c-0.3,0.5-0.5,1.4-0.6,2.5
			c0,0.5-0.1,1.1-0.1,1.7c0,0.6,0,1.5,0,2.6c0,1,0,2.3,0,4c0,1.6,0,3.6,0,6v1.4c0,0.3,0.1,0.5,0.5,0.5L785,518.2L785,518.2z"/>
		<path fill="#212F4C" d="M824,544.6c-3.5-1.6-6.3-3.6-8.5-6c-2.2-2.4-3.8-5.2-4.8-8.2c-1-3-1.5-5.9-1.5-8.8c0-2.7,0.5-5.6,1.5-8.6
			s2.7-5.7,4.9-8.2c2.3-2.5,5.2-4.5,8.7-6.1c3.6-1.6,7.9-2.4,13-2.4c4.2,0,8,0.6,11.4,1.7c3.4,1.1,6.3,2.8,8.7,4.8
			c2.4,2.1,4.2,4.6,5.4,7.6c1.3,3,1.9,6.4,1.9,10.1c0,3.7-0.6,7.2-1.9,10.4c-1.3,3.2-3.2,6-5.6,8.4c-2.4,2.4-5.4,4.3-8.9,5.6
			c-3.5,1.4-7.4,2.1-11.7,2.1C831.6,547,827.4,546.2,824,544.6z M843.6,542.8c1.8-0.4,3.4-1.4,5.1-2.8c1.6-1.4,3-3.5,4.2-6.2
			c1.2-2.7,1.8-6.4,1.8-11c0-3.6-0.5-6.8-1.5-9.6c-1-2.9-2.4-5.3-4.2-7.3c-1.8-2-3.8-3.5-6.2-4.6c-2.4-1.1-4.9-1.6-7.6-1.6
			c-1.9,0-3.8,0.3-5.7,0.9c-1.9,0.6-3.7,1.6-5.2,3.1c-1.5,1.5-2.8,3.5-3.8,6.1c-1,2.6-1.5,5.9-1.5,9.9c0,3.4,0.5,6.5,1.4,9.4
			c0.9,2.9,2.3,5.4,4,7.5c1.8,2.1,3.9,3.8,6.4,5.1c2.5,1.2,5.4,1.9,8.5,1.9C840.4,543.5,841.9,543.2,843.6,542.8z"/>
		<path fill="#212F4C" d="M887,544.6c-3.5-1.6-6.3-3.6-8.5-6c-2.2-2.4-3.8-5.2-4.8-8.2c-1-3-1.5-5.9-1.5-8.8c0-2.7,0.5-5.6,1.5-8.6
			c1-3,2.7-5.7,4.9-8.2c2.3-2.5,5.2-4.5,8.7-6.1c3.6-1.6,7.9-2.4,13-2.4c4.2,0,8,0.6,11.4,1.7c3.4,1.1,6.3,2.8,8.7,4.8
			s4.2,4.6,5.4,7.6c1.3,3,1.9,6.4,1.9,10.1c0,3.7-0.6,7.2-1.9,10.4c-1.3,3.2-3.2,6-5.6,8.4c-2.4,2.4-5.4,4.3-8.9,5.6
			c-3.5,1.4-7.4,2.1-11.7,2.1C894.7,547,890.5,546.2,887,544.6z M906.7,542.8c1.8-0.4,3.4-1.4,5.1-2.8c1.6-1.4,3-3.5,4.2-6.2
			c1.2-2.7,1.8-6.4,1.8-11c0-3.6-0.5-6.8-1.5-9.6c-1-2.9-2.4-5.3-4.2-7.3c-1.8-2-3.8-3.5-6.2-4.6c-2.4-1.1-4.9-1.6-7.6-1.6
			c-1.9,0-3.8,0.3-5.7,0.9c-1.9,0.6-3.7,1.6-5.2,3.1c-1.5,1.5-2.8,3.5-3.8,6.1c-1,2.6-1.5,5.9-1.5,9.9c0,3.4,0.5,6.5,1.4,9.4
			c0.9,2.9,2.3,5.4,4,7.5c1.8,2.1,3.9,3.8,6.4,5.1c2.5,1.2,5.4,1.9,8.5,1.9C903.5,543.5,904.9,543.2,906.7,542.8z"/>
		<path fill="#212F4C" d="M951.5,527.3c0,4.2,0.1,7.3,0.2,9.5c0.1,2.2,0.5,3.5,1.3,4.2c0.6,0.5,1.5,0.9,2.9,1.1
			c1.4,0.2,3.4,0.3,6,0.3c1.8,0,3.3-0.1,4.6-0.3c1.3-0.2,2.4-0.7,3.2-1.6c0.4-0.4,0.8-1,1.1-1.8c0.3-0.8,0.5-1.5,0.6-2.1
			c0.1-0.7,0.4-1,0.8-1c0.3,0,0.4,0.1,0.5,0.4c0.1,0.3,0.1,0.6,0.1,1c0,0.2,0,0.6-0.1,1.2c0,0.6-0.1,1.3-0.2,2.1
			c-0.1,0.8-0.2,1.5-0.3,2.3c-0.1,0.8-0.2,1.4-0.4,1.9c-0.1,0.4-0.2,0.6-0.3,0.9c-0.1,0.2-0.3,0.4-0.6,0.5c-0.3,0.1-0.7,0.2-1.2,0.3
			c-0.5,0-1.2,0.1-2.1,0.1c-4.7,0-8.7-0.1-12.1-0.2c-1.7,0-3.2-0.1-4.7-0.1s-2.9,0-4.2,0c-0.4,0-0.9,0-1.6,0c-0.7,0-1.4,0-2.2,0
			c-0.8,0-1.6,0.1-2.4,0.1s-1.5,0-2.3,0c-0.9,0-1.3-0.2-1.3-0.7c0-0.1,0.1-0.3,0.2-0.5c0.1-0.1,0.4-0.2,0.8-0.2c1,0,1.8-0.1,2.4-0.2
			c0.7-0.1,1.2-0.5,1.4-1.1c0.3-0.6,0.4-1.4,0.5-2.3c0.1-1.4,0.2-3.3,0.3-5.7c0-2.4,0-5.1,0-8.1v-11.4c0-2.4,0-4.4,0-5.9
			c0-1.6,0-2.8,0-3.8c0-1,0-1.7,0-2.3c0-0.6,0-1.1,0-1.6c-0.1-1.1-0.3-1.9-0.7-2.4c-0.4-0.5-1.1-0.8-2.2-1.1
			c-0.6-0.1-1.3-0.2-2.2-0.2c-0.8,0-1.1-0.2-1.1-0.7c0-0.4,0.5-0.6,1.4-0.6c0.8,0,1.6,0,2.5,0c0.9,0,1.7,0,2.6,0c0.9,0,1.7,0,2.4,0
			c0.7,0,1.3,0,1.8,0c0.4,0,1,0,1.8,0c0.8,0,1.7,0,2.6,0c1,0,1.9,0,2.9,0c0.9,0,1.7,0,2.4,0c1,0,1.4,0.2,1.4,0.6
			c0,0.5-0.4,0.7-1.2,0.7c-0.4,0-0.8,0-1.3,0c-0.5,0-0.9,0.1-1.3,0.2c-0.9,0.1-1.5,0.5-1.9,1c-0.3,0.5-0.5,1.4-0.6,2.5
			c0,0.5-0.1,1.1-0.1,1.6c0,0.6,0,1.4,0,2.3s0,2.2,0,3.8c0,1.5,0,3.5,0,5.9L951.5,527.3L951.5,527.3z"/>
	</g>
</g>
</svg>
